<svg width="95" height="23" viewBox="0 0 95 23" fill="none" xmlns="http://www.w3.org/2000/svg">
<path fill-rule="evenodd" clip-rule="evenodd" d="M6.87618 10.5469C11.8047 8.17123 13.2833 16.1205 10.0229 18.1764C7.08469 20.022 4.0234 16.7418 5.19865 12.5752C5.56832 11.2687 6.05156 10.9489 6.87618 10.556V10.5469ZM11.4683 7.35344C9.44001 5.24276 5.701 5.31124 3.22725 7.10229C-1.01889 10.1906 -1.17055 18.4873 3.34121 21.6853C6.47844 23.9056 9.0323 22.8616 11.8188 21.3633L11.8456 22.6996L16.4614 22.6531L16.424 6.06919L11.8461 6.10545C11.723 6.36117 11.7797 7.28417 11.7133 7.43951C11.3153 8.26189 11.9375 7.63653 11.4683 7.35344Z" fill="#211E1E"/>
<path d="M11.5315 7.79829C11.5529 7.78795 11.5744 7.81892 11.5947 7.81375C11.6054 7.81375 11.6108 7.80346 11.6215 7.79829C11.6376 7.79312 11.6483 7.79829 11.6643 7.79829C11.7018 7.80346 11.7072 7.81375 11.6857 7.85667C11.682 7.86184 11.6429 7.86188 11.6375 7.86188C11.6054 7.86188 11.6269 7.86706 11.6055 7.84121C11.6023 7.83604 11.5947 7.836 11.5947 7.836C11.5921 7.82566 11.6054 7.81008 11.6107 7.80491C11.6145 7.79457 11.6151 7.78436 11.6215 7.77919C11.6322 7.76885 11.683 7.77402 11.6959 7.77919L11.6907 7.83284C11.6746 7.83284 11.6745 7.82767 11.6531 7.83284C11.6477 7.8331 11.6424 7.83801 11.6371 7.83284C11.6263 7.82767 11.621 7.82255 11.6156 7.81738C11.6049 7.81738 11.5943 7.81742 11.5996 7.82259C11.5991 7.81742 11.6018 7.82259 11.5996 7.82259C11.6018 7.82285 11.607 7.82779 11.6086 7.82779C11.6134 7.82262 11.6141 7.81734 11.6194 7.81217C11.6221 7.81217 11.6247 7.81269 11.63 7.81217C11.6622 7.81217 11.6263 7.81269 11.6568 7.81217C11.6568 7.81243 11.6584 7.81202 11.6568 7.81217C11.6595 7.87732 11.6456 7.84305 11.6723 7.85856C11.6745 7.85856 11.668 7.85856 11.667 7.85856C11.6509 7.85856 11.6402 7.86373 11.6241 7.85856C11.6134 7.85339 11.6081 7.84294 11.5973 7.84294C11.5759 7.83777 11.5546 7.8689 11.5343 7.85856V7.80428L11.5315 7.79829Z" fill="#211E1E"/>
<path d="M11.5996 7.82259C11.5943 7.81742 11.6049 7.81738 11.6156 7.81738C11.621 7.82255 11.6263 7.82767 11.6371 7.83284C11.6424 7.83801 11.6477 7.8331 11.6531 7.83284C11.6745 7.82767 11.6746 7.83284 11.6907 7.83284L11.6959 7.77919C11.683 7.77402 11.6322 7.76885 11.6215 7.77919C11.6151 7.78436 11.6145 7.79457 11.6107 7.80491C11.6054 7.81008 11.5921 7.82566 11.5947 7.836C11.5947 7.836 11.6023 7.83604 11.6055 7.84121C11.6269 7.86706 11.6054 7.86188 11.6375 7.86188C11.6429 7.86188 11.682 7.86184 11.6857 7.85667C11.7072 7.81375 11.7018 7.80346 11.6643 7.79829C11.6483 7.79829 11.6376 7.79312 11.6215 7.79829C11.6108 7.80346 11.6054 7.81375 11.5947 7.81375C11.5744 7.81892 11.5529 7.78795 11.5315 7.79829L11.5343 7.80428V7.85856C11.5546 7.8689 11.5759 7.83777 11.5973 7.84294C11.6081 7.84294 11.6134 7.85339 11.6241 7.85856C11.6402 7.86373 11.6509 7.85856 11.667 7.85856C11.668 7.85856 11.6745 7.85856 11.6723 7.85856C11.6456 7.84305 11.6595 7.87732 11.6568 7.81217M11.5996 7.82259C11.6018 7.82259 11.5991 7.81742 11.5996 7.82259ZM11.5996 7.82259C11.6018 7.82285 11.607 7.82779 11.6086 7.82779C11.6134 7.82262 11.6141 7.81734 11.6194 7.81217C11.6221 7.81217 11.6247 7.81269 11.63 7.81217C11.6622 7.81217 11.6263 7.81269 11.6568 7.81217M11.6568 7.81217C11.6584 7.81202 11.6568 7.81243 11.6568 7.81217Z" stroke="#211E1E" stroke-width="0.461701"/>
<path d="M11.576 7.68937C11.5813 7.68937 11.5866 7.69462 11.592 7.69979C11.5947 7.7003 11.635 7.70026 11.635 7.70026C11.6564 7.70031 11.6777 7.70026 11.6976 7.70026C11.719 7.70047 11.7296 7.69503 11.7082 7.73639C11.7076 7.73639 11.6761 7.73639 11.6654 7.73639C11.6439 7.74674 11.628 7.71052 11.6065 7.71052C11.6012 7.71103 11.5959 7.71572 11.5905 7.71572C11.5852 7.71572 11.5797 7.72093 11.569 7.72093C11.5422 7.70025 11.5262 7.66246 11.5583 7.6392C11.5637 7.63402 11.5744 7.63411 11.5797 7.62894C11.5851 7.62889 11.5958 7.62371 11.6011 7.62862C11.6065 7.63379 11.6225 7.65963 11.6386 7.64929C11.6653 7.63378 11.6441 7.61828 11.6815 7.62862C11.7297 7.64931 11.6708 7.69274 11.6493 7.68085C11.644 7.67568 11.6387 7.66535 11.6333 7.66018C11.6173 7.64984 11.5959 7.68089 11.5905 7.68606C11.553 7.68606 11.5154 7.65496 11.5475 7.61774C11.5518 7.61257 11.5584 7.61265 11.5637 7.60748C11.5685 7.60748 11.6012 7.59707 11.6065 7.59707C11.6172 7.60224 11.6173 7.62291 11.6333 7.61774C11.644 7.61774 11.644 7.59703 11.6493 7.59186C11.6531 7.59186 11.6868 7.59186 11.6922 7.59186C11.7404 7.59186 11.7842 7.64677 11.7136 7.66539C11.7029 7.66539 11.6505 7.67052 11.6467 7.66018C11.62 7.60796 11.652 7.64464 11.6423 7.6343C11.6429 7.62396 11.6386 7.6136 11.6444 7.60843C11.6493 7.60326 11.7109 7.61363 11.7194 7.61363L11.7136 7.66539C11.7082 7.66539 11.6606 7.66172 11.6552 7.65655C11.6504 7.65138 11.6477 7.64464 11.6423 7.6343C11.6477 7.64464 11.6402 7.62552 11.6552 7.61C11.6584 7.60483 11.6927 7.61517 11.7034 7.61C11.7195 7.61026 11.698 7.61003 11.698 7.63588C11.6981 7.64105 11.7035 7.64617 11.7088 7.65135C11.7088 7.6516 11.7091 7.65186 11.7088 7.65135C11.7035 7.64617 11.6996 7.64614 11.6943 7.64614C11.6916 7.64588 11.6623 7.64093 11.6623 7.64093C11.6515 7.63576 11.6516 7.61505 11.6409 7.61505C11.6301 7.61505 11.6354 7.6358 11.6247 7.64614C11.6193 7.65131 11.6086 7.64576 11.6033 7.65119C11.5926 7.65119 11.614 7.62531 11.5873 7.62531C11.5905 7.62531 11.5958 7.62862 11.6011 7.62862C11.6065 7.63379 11.6225 7.65963 11.6386 7.64929C11.6439 7.64412 11.6466 7.63565 11.652 7.62531C11.6627 7.61497 11.7415 7.62532 11.6627 7.67186C11.6681 7.67186 11.6622 7.67224 11.659 7.66681C11.6536 7.65647 11.6536 7.6461 11.6482 7.64093C11.6321 7.62542 11.6215 7.66164 11.6162 7.66681C11.6135 7.67198 11.6054 7.67186 11.6054 7.67186C11.6043 7.67165 11.6065 7.67289 11.6054 7.67186C11.6051 7.67186 11.5964 7.6455 11.6023 7.66618C11.6018 7.68686 11.6055 7.7106 11.635 7.70026C11.6403 7.70026 11.6451 7.69206 11.6505 7.69206C11.6558 7.69206 11.6612 7.69206 11.6665 7.69206C11.6772 7.69206 11.7093 7.69206 11.7093 7.69206C11.7307 7.73342 11.72 7.72835 11.6985 7.72835C11.6771 7.72835 11.6558 7.7283 11.6359 7.72835C11.6349 7.72835 11.5931 7.72836 11.5931 7.72882C11.5878 7.72882 11.5825 7.73391 11.5771 7.73908L11.576 7.68937Z" fill="#211E1E"/>
<path d="M11.635 7.70026C11.635 7.70026 11.5947 7.7003 11.592 7.69979C11.5866 7.69462 11.5813 7.68937 11.576 7.68937L11.5771 7.73908C11.5825 7.73391 11.5878 7.72882 11.5931 7.72882C11.5931 7.72836 11.6349 7.72835 11.6359 7.72835C11.6558 7.7283 11.6771 7.72835 11.6985 7.72835C11.72 7.72835 11.7307 7.73342 11.7093 7.69206C11.7093 7.69206 11.6772 7.69206 11.6665 7.69206C11.6612 7.69206 11.6558 7.69206 11.6505 7.69206C11.6451 7.69206 11.6403 7.70026 11.635 7.70026ZM11.635 7.70026C11.6564 7.70031 11.6777 7.70026 11.6976 7.70026C11.719 7.70047 11.7296 7.69503 11.7082 7.73639C11.7076 7.73639 11.6761 7.73639 11.6654 7.73639C11.6439 7.74674 11.628 7.71052 11.6065 7.71052C11.6012 7.71103 11.5959 7.71572 11.5905 7.71572C11.5852 7.71572 11.5797 7.72093 11.569 7.72093C11.5422 7.70025 11.5262 7.66246 11.5583 7.6392C11.5637 7.63402 11.5744 7.63411 11.5797 7.62894C11.5851 7.62889 11.5958 7.62371 11.6011 7.62862M11.635 7.70026C11.6055 7.7106 11.6018 7.68686 11.6023 7.66618C11.5964 7.6455 11.6051 7.67186 11.6054 7.67186M11.6011 7.62862C11.6065 7.63379 11.6225 7.65963 11.6386 7.64929M11.6011 7.62862C11.5958 7.62862 11.5905 7.62531 11.5873 7.62531C11.614 7.62531 11.5926 7.65119 11.6033 7.65119C11.6086 7.64576 11.6193 7.65131 11.6247 7.64614C11.6354 7.6358 11.6301 7.61505 11.6409 7.61505C11.6516 7.61505 11.6515 7.63576 11.6623 7.64093C11.6623 7.64093 11.6916 7.64588 11.6943 7.64614C11.6996 7.64614 11.7035 7.64617 11.7088 7.65135M11.6386 7.64929C11.6653 7.63378 11.6441 7.61828 11.6815 7.62862C11.7297 7.64931 11.6708 7.69274 11.6493 7.68085C11.644 7.67568 11.6387 7.66535 11.6333 7.66018C11.6173 7.64984 11.5959 7.68089 11.5905 7.68606C11.553 7.68606 11.5154 7.65496 11.5475 7.61774C11.5518 7.61257 11.5584 7.61265 11.5637 7.60748C11.5685 7.60748 11.6012 7.59707 11.6065 7.59707C11.6172 7.60224 11.6173 7.62291 11.6333 7.61774C11.644 7.61774 11.644 7.59703 11.6493 7.59186C11.6531 7.59186 11.6868 7.59186 11.6922 7.59186C11.7404 7.59186 11.7842 7.64677 11.7136 7.66539M11.6386 7.64929C11.6439 7.64412 11.6466 7.63565 11.652 7.62531C11.6627 7.61497 11.7415 7.62532 11.6627 7.67186C11.6681 7.67186 11.6622 7.67224 11.659 7.66681C11.6536 7.65647 11.6536 7.6461 11.6482 7.64093C11.6321 7.62542 11.6215 7.66164 11.6162 7.66681C11.6135 7.67198 11.6054 7.67186 11.6054 7.67186M11.7136 7.66539C11.7029 7.66539 11.6505 7.67052 11.6467 7.66018C11.62 7.60796 11.652 7.64464 11.6423 7.6343M11.7136 7.66539L11.7194 7.61363C11.7109 7.61363 11.6493 7.60326 11.6444 7.60843C11.6386 7.6136 11.6429 7.62396 11.6423 7.6343M11.7136 7.66539C11.7082 7.66539 11.6606 7.66172 11.6552 7.65655C11.6504 7.65138 11.6477 7.64464 11.6423 7.6343M11.6423 7.6343C11.6477 7.64464 11.6402 7.62552 11.6552 7.61C11.6584 7.60483 11.6927 7.61517 11.7034 7.61C11.7195 7.61026 11.698 7.61003 11.698 7.63588C11.6981 7.64105 11.7035 7.64617 11.7088 7.65135M11.7088 7.65135C11.7091 7.65186 11.7088 7.6516 11.7088 7.65135ZM11.6054 7.67186C11.6043 7.67165 11.6065 7.67289 11.6054 7.67186Z" stroke="#211E1E" stroke-width="0.461701"/>
<path fill-rule="evenodd" clip-rule="evenodd" d="M23.3875 22.6627C23.7288 19.7937 21.8615 8.89302 26.4015 10.0991C29.9557 11.0494 26.2405 19.6658 29.2449 22.6993L34.0597 22.6078C32.4579 19.5835 32.8559 19.9305 32.8465 16.0472C32.8465 13.7813 32.4105 10.0626 35.2634 10.0626C39.8034 10.0626 35.1783 19.693 38.9409 22.69L43.7841 22.6435C40.6564 19.4455 43.2817 14.0181 41.8979 9.34901C41.3769 7.59469 39.8129 6.03229 37.5287 5.813C34.382 5.5113 33.6332 6.5165 31.9177 7.88709C30.7992 7.06477 30.2779 5.94096 27.88 5.80385C25.6906 5.67574 24.1995 6.34797 23.1854 7.46269L23.148 6.32742C23.1266 6.2086 23.0929 6.1611 23.0361 6.07896L18.5918 6.14202L18.7058 22.7075L23.3878 22.6714L23.3875 22.6627Z" fill="#211E1E"/>
<path fill-rule="evenodd" clip-rule="evenodd" d="M51.3755 10.5921C56.361 7.9697 57.6783 16.6592 54.2947 18.3039C51.783 19.5191 50.0676 17.5911 49.5653 15.8459C49.0533 14.0824 49.3663 11.652 51.3755 10.5921ZM49.4002 21.5815C51.6258 23.2934 55.906 23.3567 58.1239 21.3557C62.7586 17.1527 61.8582 9.63275 57.5363 6.83675C54.2379 4.70785 51.8968 6.06935 49.5653 7.42165L49.5277 0.185028L44.675 0.267166L44.798 22.7079L49.2786 22.7338C49.4022 21.575 49.2802 22.7441 49.2787 22.7492L49.4002 21.5815Z" fill="#211E1E"/>
<path fill-rule="evenodd" clip-rule="evenodd" d="M67.2989 12.6483C68.0477 8.64625 72.4835 8.71942 73.0522 12.6587L67.2989 12.6483ZM77.1182 17.3539C73.9431 18.4595 68.5405 20.5976 67.2895 16.1113L77.8954 15.9196C78.104 11.1958 76.6348 7.58662 73.1753 6.23431C64.048 2.67086 58.437 15.545 65.2043 21.0181C68.0477 23.3207 73.5449 23.7594 76.521 21.3287C76.995 20.3876 77.0898 18.7428 77.1088 17.3539H77.1182Z" fill="#211E1E"/>
<path fill-rule="evenodd" clip-rule="evenodd" d="M94.0173 6.08782L88.8992 6.17926L85.6104 16.9336L82.4257 6.07867L77.3645 6.08908C77.5255 7.50534 82.3499 21.4759 83.0702 22.6911L88.3968 22.717L94.0268 6.09665L94.0173 6.08782Z" fill="#211E1E"/>
</svg>
