<svg width="72" height="72" viewBox="0 0 72 72" fill="none" xmlns="http://www.w3.org/2000/svg">
<path d="M71.9052 33.7263C70.7684 14.9684 55.1368 0 36 0C16.8631 0 1.23157 14.9684 0.0947266 33.7263C0.0947266 34.4842 0.189463 35.2421 0.2842 36C1.04209 42.2526 3.41052 48.0316 7.01051 52.8632C13.5474 61.7684 24.0631 67.5474 36 67.5474C19.3263 67.5474 5.6842 54.5684 4.54736 38.2737C4.45262 37.5158 4.45262 36.7579 4.45262 36C4.45262 35.2421 4.45262 34.4842 4.54736 33.7263C5.6842 17.4316 19.3263 4.45263 36 4.45263C47.9368 4.45263 58.4526 10.2316 64.9894 19.1368C68.5894 23.9684 70.9579 29.7474 71.7158 36C71.8105 36.7579 71.9052 37.5158 71.9052 38.179C71.9052 37.4211 72 36.6632 72 35.9053C72 35.2421 72 34.4842 71.9052 33.7263Z" fill="#211E1E"/>
<path d="M0.0947368 38.2737C1.23158 57.0316 16.8632 72 36 72C55.1368 72 70.7684 57.0316 71.9052 38.2737C71.9052 37.5158 71.8105 36.7579 71.7158 36C70.9579 29.7474 68.5895 23.9684 64.9895 19.1368C58.4526 10.2316 47.9368 4.45264 36 4.45264C52.6737 4.45264 66.3158 17.4316 67.4526 33.7263C67.5473 34.4842 67.5473 35.2421 67.5473 36C67.5473 36.7579 67.5473 37.5158 67.4526 38.2737C66.3158 54.6632 52.6737 67.5474 36 67.5474C24.0632 67.5474 13.5474 61.7684 7.01052 52.8632C3.41053 48.0316 1.0421 42.2526 0.28421 36C0.189474 35.2421 0.0947368 34.4842 0.0947368 33.8211C0.0947368 34.579 0 35.3369 0 36.0948C0 36.7579 6.77611e-09 37.5158 0.0947368 38.2737Z" fill="#211E1E"/>
<path d="M31.5474 6.91577V16.8632H38.4632C40.1684 16.8632 41.4948 15.5368 41.4948 13.8316C41.4948 12.9789 41.1158 12.221 40.5474 11.6526C40.9263 11.1789 41.2105 10.5157 41.3052 9.85259C41.3052 8.24206 39.9789 6.91577 38.3684 6.91577H31.5474ZM33.821 8.99998H37.9894C38.4631 8.99998 38.8421 9.3789 38.8421 9.85259C38.8421 10.3263 38.4631 10.7052 37.9894 10.7052H33.821V8.99998ZM33.821 12.7894H38.0842C38.6526 12.7894 39.0316 13.1684 39.0316 13.7368C39.0316 14.3052 38.6526 14.6842 38.0842 14.6842H33.821V12.7894Z" fill="#211E1E"/>
<path d="M34.8631 18.7578L29.9368 28.7052H32.4947L33.2526 27H38.8421L39.6 28.7052H42.1578L37.1368 18.7578H34.8631ZM36 21.3158L37.7052 24.9158H34.2947L36 21.3158Z" fill="#211E1E"/>
<path d="M39.4105 30.8842H42.2526L37.2315 37.3263V40.8315H34.8631V37.3263L29.842 30.8842H32.6841L36.0947 35.4315L39.4105 30.8842Z" fill="#211E1E"/>
<path d="M55.7051 30.8842V40.8315H58.0735V37.0421H59.8735L62.7157 40.8315H65.5577L62.6209 36.9473C63.8525 36.5684 64.7999 35.4316 64.7999 34.0105C64.7999 32.3053 63.4735 30.8842 61.7683 30.8842H55.7051ZM58.1683 32.9684H61.5788C62.0525 32.9684 62.5262 33.4421 62.5262 33.9158C62.5262 34.3894 62.1473 34.8631 61.5788 34.8631H58.1683V32.9684Z" fill="#211E1E"/>
<path d="M7.29468 30.8842V40.8315H14.2105C15.9157 40.8315 17.2421 39.5052 17.2421 37.8C17.2421 36.9473 16.8631 36.1894 16.2947 35.621C16.6736 35.1473 16.9578 34.4841 17.0525 33.821C17.0525 32.2104 15.7262 30.8842 14.1157 30.8842H7.29468ZM9.5683 32.9684H13.7367C14.2104 32.9684 14.5895 33.3473 14.5895 33.821C14.5895 34.2947 14.2104 34.6736 13.7367 34.6736H9.5683V32.9684ZM9.5683 36.7578H13.8315C14.3999 36.7578 14.7789 37.1368 14.7789 37.7052C14.7789 38.2736 14.3999 38.6526 13.8315 38.6526H9.5683V36.7578Z" fill="#211E1E"/>
<path d="M23.5895 30.8842L18.6631 40.8316H21.2211L21.9789 39.1263H27.5684L28.3263 40.8316H30.8841L25.8631 30.8842H23.5895ZM24.7263 33.4421L26.4315 37.0421H23.0211L24.7263 33.4421Z" fill="#211E1E"/>
<path d="M52.5789 30.8842V33.0224H45.9473V34.6958H52.3894V36.834H45.9473V38.6933H52.5789V40.8316H43.5789V30.8842H52.5789Z" fill="#211E1E"/>
<path d="M31.4526 55.3264V65.2737H33.821V61.4843H35.621L38.4632 65.2737H41.3052L38.3684 61.3895C39.6 61.0106 40.5474 59.8738 40.5474 58.4527C40.5474 56.7475 39.2211 55.3264 37.5158 55.3264H31.4526ZM33.9158 57.4106H37.3264C37.8001 57.4106 38.2738 57.8843 38.2738 58.358C38.2738 58.8316 37.8948 59.3053 37.3264 59.3053H33.9158V57.4106Z" fill="#211E1E"/>
<path d="M40.5474 42.9883V45.1266H33.9158V46.8H40.3579V48.9382H33.9158V50.7975H40.5474V52.9357H31.5474V42.9883H40.5474Z" fill="#211E1E"/>
</svg>
