<svg width="106" height="17" viewBox="0 0 106 17" fill="none" xmlns="http://www.w3.org/2000/svg">
<path fill-rule="evenodd" clip-rule="evenodd" d="M29.3688 7.49848L28.0478 11.6098H30.6835L29.3688 7.49848ZM7.40827 0.754825C9.89126 0.715176 12.757 1.43273 12.9694 4.51039C13.0794 6.10409 12.1713 7.8011 10.6034 8.24667C13.4242 9.01995 13.832 13.0644 12.3652 14.5417C10.3611 16.5602 7.19501 16.4711 4.69331 16.5542H0.0280762L0.0716119 0.755039L7.40827 0.754825ZM4.52547 13.6617H6.38382C7.24465 13.6617 7.8676 13.4976 8.26068 13.1739C8.64998 12.8501 8.82854 12.3501 8.79236 11.6655C8.75976 11.0507 8.56207 10.5875 8.19591 10.2799C7.82975 9.9724 7.29428 9.81659 6.59435 9.81659H4.41422L4.41695 11.161C4.41779 11.3293 4.4201 11.526 4.4281 11.7515C4.43609 11.977 4.45502 12.3336 4.48067 12.8214L4.52547 13.6617ZM4.38372 7.05933H5.72764C6.8625 7.05933 7.67453 6.9153 8.16415 6.63176C8.64893 6.34799 8.87354 5.88634 8.83316 5.24723C8.79447 4.63749 8.57826 4.20991 8.18434 3.9643C7.79063 3.72319 7.10605 3.60017 6.13502 3.60017H4.39802C4.39361 3.68482 4.39255 3.90515 4.39066 4.26907C4.38877 4.6332 4.3894 4.95083 4.38666 5.2258L4.38372 7.05933ZM78.1806 3.60124C80.8157 3.43814 82.3853 4.8816 82.4766 6.69477C82.5645 8.44792 81.8719 9.66784 79.8361 10.4707L83.0922 16.5566H79.362L75.7406 9.23684L77.2515 9.22955C78.1005 9.22527 78.7643 8.48136 78.7931 7.58485C78.8354 6.2807 77.9966 5.8019 76.8247 5.80297L75.5422 5.80404L75.5624 16.5568H72.0701L72.0758 3.60145L78.1806 3.60124ZM45.3583 3.67754H48.8584V16.5472H45.3583V3.67754ZM49.8988 3.67754H53.3989V14.378H57.7268V16.5116L49.8988 16.5472V3.67754ZM83.2573 16.59L83.2465 3.41178H92.2409L92.2491 5.63987L86.8309 5.61373L86.8261 8.55037L91.7357 8.52444L91.6995 10.7973L86.8208 10.7967L86.7924 14.2385L92.222 14.2573L92.2306 16.59H83.2573ZM92.7412 3.39485H96.2882L98.5754 11.5755L101.516 3.39485H105.063L100.442 16.5697H96.475L92.7412 3.39485ZM62.938 7.76831H64.227C65.2424 7.76831 65.9535 7.57756 66.3647 7.18964C66.7742 6.80343 66.9796 6.3062 66.9796 5.70567C66.9796 5.11821 66.799 4.61948 66.4444 4.21313C66.0892 3.80613 65.4208 3.59952 64.4373 3.59952H62.938V7.76831ZM58.6339 0.855985H65.6195C67.1904 0.855985 69.0849 1.39136 69.9697 2.12863C71.1046 3.07508 71.354 4.19641 71.4118 5.29803C71.5851 8.58895 68.9961 10.2806 65.548 10.2806H62.938V16.5521H58.6339V0.855985ZM35.2226 14.2959L39.3185 14.2955C40.0081 14.2955 40.9909 13.7815 40.6035 12.6718C40.4906 12.3486 40.2106 11.9945 39.6411 11.6801C38.9088 11.2757 37.7893 10.9053 36.9082 10.4184C36.0876 9.9649 35.2817 9.19012 34.9557 8.56987C34.347 7.41146 34.4166 5.6881 35.4819 4.66792C36.1652 4.01381 37.3705 3.61903 38.6251 3.69211L44.1107 3.70304L44.0979 5.88399L39.4987 5.90435C38.5721 5.9082 37.9289 6.88894 38.4503 7.50962C39.4682 8.72204 41.8189 9.22184 42.8307 9.89653C44.6502 11.1092 45.0332 13.606 43.7326 15.1866C42.8263 16.2876 41.2355 16.5088 39.553 16.5152L34.1014 16.5362L34.1005 16.5289H32.1944L31.4207 13.681H27.5254L26.3304 16.5289L21.0643 16.5086L17.49 9.23684L19.0009 9.22955C19.8499 9.22527 20.5137 8.62409 20.5425 7.72758C20.5848 6.42365 19.746 5.8019 18.5744 5.80297L17.2914 5.80404L17.3118 16.5568H13.8195L13.8252 3.60145H19.9303C22.5653 3.43835 24.1349 4.8816 24.2258 6.69498C24.3139 8.44814 23.5744 9.763 21.539 10.5661L23.5677 14.2456L27.4381 3.67497L31.7671 3.68461L35.2226 14.2959Z" fill="#211E1E"/>
</svg>
