<svg width="107" height="18" viewBox="0 0 107 18" fill="none" xmlns="http://www.w3.org/2000/svg">
<path d="M11.1871 7.40391C8.22231 10.4725 10.5412 12.9831 16.3836 13.0709L15.818 14.0754C8.37381 13.9951 5.22551 11.126 8.78065 7.62697C11.3863 5.06084 17.3482 2.37463 22.6488 1.6255L22.1859 2.47031C17.8269 3.29127 13.363 5.15652 11.1871 7.40391Z" fill="#211E1E"/>
<path d="M8.03907 7.59519C4.22076 11.3574 7.56098 14.4575 15.5545 14.545L14.7655 15.9479C14.4788 15.956 14.1999 15.956 13.9126 15.956C4.79453 15.956 1.31206 11.923 5.55993 7.53964C8.95515 4.02462 16.6389 1.09151 23.142 0.724516L22.7756 1.39425C16.9251 2.10353 10.8283 4.8453 8.03907 7.59519Z" fill="#211E1E"/>
<path d="M2.30128 7.57924C6.35809 3.45846 15.4517 0.302574 23.5496 -0.000164032L23.2623 0.485788C16.2648 0.82865 8.4621 3.79347 4.89097 7.48384C0.428175 12.0903 4.04673 16.426 13.6272 16.426C13.9299 16.426 14.2082 16.4184 14.5113 16.4103L13.6746 17.8925C12.5907 17.9644 8.98846 18.1633 5.55284 17.1039C-0.121748 15.3503 -1.48449 11.4127 2.30128 7.57924Z" fill="#211E1E"/>
<path d="M17.9062 14.0271C17.3725 14.0512 16.8058 14.0672 16.4158 14.0754L16.934 13.0785C17.3158 13.0709 17.8585 13.0631 18.2726 13.0468L17.9062 14.0271Z" fill="#211E1E"/>
<path d="M16.5595 17.6534C15.8895 17.7168 15.0607 17.7886 14.4954 17.8372L15.2285 16.3945C15.7229 16.3703 16.4557 16.3308 17.0615 16.2906L16.5595 17.6534Z" fill="#211E1E"/>
<path d="M17.2285 15.8603C16.7499 15.8929 16.1528 15.9243 15.4592 15.9484L16.1685 14.5613C16.7499 14.5537 17.2919 14.5296 17.7307 14.5054L17.2285 15.8603Z" fill="#211E1E"/>
<path d="M11.018 7.44833C8.05318 10.5167 10.3721 13.0275 16.2145 13.1151L15.6489 14.119C8.20413 14.0398 5.05638 11.1704 8.61096 7.67139C11.2166 5.10498 17.1788 2.41906 22.4797 1.66965L22.0167 2.51473C17.6575 3.33569 13.1938 5.20066 11.018 7.44833Z" fill="#211E1E"/>
<path d="M7.86904 7.63954C4.05128 11.4015 7.39094 14.5018 15.385 14.5896L14.5961 15.9922C14.3088 16.0001 14.0301 16.0001 13.7426 16.0001C4.62477 16.0001 1.14258 11.9674 5.39074 7.58371C8.78539 4.06897 16.4692 1.13614 22.9726 0.769147L22.6059 1.43831C16.7556 2.14788 10.6588 4.88964 7.86904 7.63954Z" fill="#211E1E"/>
<path d="M2.13176 7.62365C6.18828 3.50315 15.2822 0.346981 23.3801 0.0439625L23.0928 0.529915C16.0953 0.872776 8.29258 3.83759 4.72117 7.52797C0.25865 12.135 3.8772 16.4701 13.4577 16.4701C13.7598 16.4701 14.039 16.4625 14.3417 16.4544L13.5053 17.9367C12.4207 18.0091 8.81894 18.2083 5.38332 17.1477C-0.291834 15.3944 -1.65458 11.4577 2.13176 7.62365Z" fill="#211E1E"/>
<path d="M17.7363 14.0713C17.2016 14.0954 16.6359 14.1114 16.2454 14.119L16.7639 13.1232C17.146 13.1151 17.6881 13.1069 18.1028 13.0909L17.7363 14.0713Z" fill="#211E1E"/>
<path d="M16.3899 17.6979C15.7199 17.7616 14.8911 17.8332 14.3254 17.8809L15.0583 16.4384C15.5532 16.4143 16.2855 16.3747 16.8916 16.3346L16.3899 17.6979Z" fill="#211E1E"/>
<path d="M17.0588 15.9042C16.5807 15.9368 15.9834 15.9688 15.2898 15.9926L15.9991 14.606C16.5807 14.5973 17.1228 14.5738 17.561 14.5499L17.0588 15.9042Z" fill="#211E1E"/>
<path d="M58.188 1.9667L57.8595 3.56918H60.505L57.8406 16.158H60.6981L63.3625 3.56918H66.0656L66.3941 1.9667H58.188Z" fill="#211E1E"/>
<path d="M74.5023 2.73869C74.0004 2.12103 73.0546 1.81234 71.6648 1.81234C70.351 1.81234 69.2896 2.14023 68.4593 2.81607C67.6482 3.47243 67.1073 4.43775 66.8368 5.69313L64.6172 16.1581H67.4742L69.0964 8.53121H71.355L69.7333 16.1581H72.6106L74.8308 5.69313C75.1008 4.34116 75.0045 3.37584 74.5023 2.73869ZM72.0893 5.09467L71.7605 6.63897H69.5011L69.8299 5.09467C69.9457 4.49565 70.1194 4.09065 70.332 3.8393C70.5439 3.60799 70.8726 3.47243 71.3163 3.47243C71.7221 3.47243 71.9732 3.60799 72.0893 3.8393C72.224 4.09065 72.224 4.51542 72.0893 5.09467Z" fill="#211E1E"/>
<path d="M83.4046 1.96684L81.2416 12.1807C81.0679 12.9916 80.8752 13.5516 80.6434 13.8414C80.4307 14.1503 80.1217 14.3048 79.7362 14.3048C79.3109 14.3048 79.0796 14.1309 78.9824 13.8222C78.9059 13.4934 78.9446 12.9529 79.1183 12.1807L81.2802 1.96684H78.4227L76.2409 12.2383C75.9515 13.6095 76.0675 14.633 76.5883 15.3281C77.1295 16.0423 78.0174 16.3894 79.2914 16.3894C80.6044 16.3894 81.6666 16.0423 82.4582 15.3667C83.2307 14.6909 83.7904 13.6479 84.0805 12.2383L86.2616 1.96684H83.4046Z" fill="#211E1E"/>
<path d="M106.303 3.12503C105.801 2.25629 104.835 1.81232 103.426 1.81232C102.036 1.81232 100.877 2.29498 99.9509 3.26031C99.0624 4.24484 98.29 6.17606 97.6718 9.09152C97.0538 11.9686 96.9965 13.8992 97.4981 14.9032C98.0005 15.8875 98.9464 16.3896 100.336 16.3896C101.727 16.3896 102.866 15.8875 103.792 14.9032C104.7 13.8992 105.453 11.9686 106.072 9.09152C106.727 6.00237 106.805 4.01353 106.303 3.12503ZM103.774 5.15283C103.696 6.05998 103.484 7.37269 103.117 9.09152C102.75 10.8098 102.422 12.1231 102.112 13.0305C101.804 13.9571 101.36 14.4014 100.762 14.4014C100.182 14.4014 99.9123 13.9958 99.9509 13.185C99.9894 12.3547 100.221 10.9838 100.626 9.09152C100.974 7.39218 101.321 6.09839 101.63 5.17176C101.958 4.24484 102.422 3.78166 103.001 3.78166C103.6 3.78166 103.87 4.24484 103.774 5.15283Z" fill="#211E1E"/>
<path d="M33.048 8.53137L33.434 6.63885L33.7052 5.40324C33.8399 4.72768 34.0715 4.24474 34.3609 3.97446C34.6504 3.70418 35.1136 3.56918 35.7315 3.56918H37.7783L38.1262 1.9667H35.3266C33.8783 1.9667 32.8553 2.21721 32.2179 2.70044C31.5799 3.20231 31.1173 4.16763 30.808 5.61562L29.3409 12.528C29.0706 13.7446 29.1869 14.6518 29.669 15.2505C30.1517 15.849 31.0015 16.158 32.1981 16.158H35.481L35.8089 14.5555H33.6854C32.9709 14.5555 32.5077 14.3818 32.2947 14.0149C32.1013 13.6478 32.0823 13.0496 32.2563 12.1998L33.048 8.53137Z" fill="#211E1E"/>
<path d="M96.0132 2.79646C95.5887 2.23698 94.7771 1.9667 93.5801 1.9667H89.2167L86.2043 16.158H89.0619L90.4523 9.59301H91.6492C91.9971 9.59301 92.2479 9.68988 92.4027 9.88277C92.5569 10.0565 92.6151 10.327 92.5374 10.6939L91.3795 16.158H94.1012L95.26 10.771C95.3953 10.1533 95.3176 9.63198 95.0476 9.20693C94.7578 8.78245 94.2749 8.53137 93.6191 8.45427C94.3331 8.24189 94.9126 7.87474 95.3566 7.35338C95.8192 6.83202 96.1287 6.13726 96.3024 5.28773C96.5535 4.16763 96.4572 3.33702 96.0132 2.79646ZM93.3296 5.77011C93.1554 6.56174 92.943 7.12208 92.6916 7.43048C92.4214 7.75922 92.0745 7.91371 91.6492 7.91371H90.8194L91.7458 3.53048H92.4987C93.0006 3.53048 93.3101 3.68497 93.4257 3.99394C93.5414 4.30263 93.522 4.90137 93.3296 5.77011Z" fill="#211E1E"/>
<path d="M42.7801 4.01329C43.0891 3.74273 43.5339 3.60801 44.1708 3.60801H46.2172L46.564 2.00497H43.7454C42.3164 2.00497 41.2739 2.25633 40.6368 2.73871C40.0191 3.24114 39.5362 4.20619 39.2272 5.65446L37.76 12.5668C37.5092 13.7832 37.625 14.6909 38.1077 15.2891C38.5898 15.8873 39.4204 16.1962 40.6368 16.1962H43.9002L44.2473 14.5943H42.104C41.4092 14.5943 40.9458 14.4203 40.7337 14.0535C40.5213 13.6869 40.5213 13.0881 40.695 12.2383L41.4671 8.56992H44.8652L45.2708 6.67768H41.873L42.1427 5.44236C42.278 4.76595 42.4906 4.28357 42.7801 4.01329Z" fill="#211E1E"/>
<path d="M55.7344 2.75848C55.3489 2.25633 54.692 2.00497 53.7846 2.00497H51.3131H49.035L46.0227 16.1962H48.8803L51.5449 3.68511H52.0471C52.5298 3.68511 52.8571 3.80091 53.0505 4.01329C53.2248 4.22567 53.2632 4.53436 53.1861 4.95941L50.7917 16.1962H53.6496L56.0632 4.86282C56.2563 3.95539 56.1403 3.26035 55.7344 2.75848Z" fill="#211E1E"/>
<path d="M58.188 2.00497L57.8595 3.60801H60.505L57.8406 16.1962H60.6981L63.3625 3.60801H66.0656L66.3941 2.00497H58.188Z" fill="#211E1E"/>
<path d="M66.0656 3.57473H63.3625L60.6981 16.1635H57.8406L60.505 3.57473H57.8598L58.188 1.97225H66.3941L66.0656 3.57473Z" fill="#211E1E"/>
<path d="M66.0656 3.61332H63.3625L60.6981 16.2015H57.8406L60.505 3.61332H57.8598L58.188 2.01028H66.3941L66.0656 3.61332Z" fill="#211E1E"/>
</svg>
