<svg width="90" height="21" viewBox="0 0 90 21" fill="none" xmlns="http://www.w3.org/2000/svg">
<path fill-rule="evenodd" clip-rule="evenodd" d="M59.6047 0.21684V1.01777C58.5208 0.351646 57.2667 -0.00115871 55.987 2.85904e-06C52.2167 2.85904e-06 49.1602 2.99324 49.1602 6.68289C49.1602 10.3735 52.2167 13.3663 55.987 13.3663C57.3154 13.3663 58.5556 12.9936 59.6047 12.349V14.068C59.6044 15.0072 59.2232 15.9079 58.5448 16.5719C57.8664 17.236 56.9463 17.6091 55.987 17.6092C55.2194 17.6091 54.4718 17.3699 53.8521 16.9264C53.2325 16.4829 52.7729 15.858 52.5399 15.142L49.5668 16.3478C50.5186 18.9176 53.0328 20.7514 55.987 20.7514C59.7568 20.7514 62.8118 17.7582 62.8118 14.068H62.8198V0.21684H59.6047ZM55.987 10.225C55.0276 10.2248 54.1076 9.85147 53.4294 9.1872C52.7512 8.52293 52.3702 7.62211 52.3703 6.68289C52.3704 5.98239 52.5827 5.29765 52.9803 4.71527C53.3779 4.13289 53.943 3.67902 54.6042 3.41106C55.2653 3.1431 55.9927 3.07309 56.6944 3.20988C57.3962 3.34667 58.0408 3.68412 58.5466 4.17955C59.0525 4.67498 59.3969 5.30614 59.5363 5.99321C59.6757 6.68028 59.6039 7.39239 59.3299 8.03951C59.056 8.68662 58.5921 9.23965 57.9971 9.62868C57.402 10.0177 56.7025 10.2252 55.987 10.225ZM19.4123 2.85904e-06C15.642 2.85904e-06 12.5855 2.99372 12.5855 6.68337C12.5855 10.3735 15.642 13.3667 19.4123 13.3667C23.1821 13.3667 26.237 10.3735 26.237 6.68337C26.237 2.99324 23.1821 2.85904e-06 19.4123 2.85904e-06ZM19.4123 10.225C18.9373 10.225 18.4669 10.1333 18.0281 9.95531C17.5893 9.77729 17.1905 9.51639 16.8547 9.18752C16.5189 8.85864 16.2525 8.46823 16.0708 8.03856C15.889 7.6089 15.7955 7.14841 15.7956 6.68337C15.7956 5.98286 16.0078 5.29807 16.4054 4.71562C16.8029 4.13318 17.368 3.67923 18.0291 3.4112C18.6902 3.14317 19.4176 3.07309 20.1194 3.20982C20.8212 3.34656 21.4658 3.68397 21.9717 4.17938C22.4776 4.67479 22.8221 5.30595 22.9615 5.99303C23.101 6.68011 23.0292 7.39225 22.7553 8.03939C22.4813 8.68653 22.0175 9.2396 21.4224 9.62864C20.8274 10.0177 20.1278 10.2252 19.4123 10.225ZM6.82627 3.1417C7.42899 3.14163 8.02215 3.28918 8.55173 3.57092C9.0813 3.85267 9.53046 4.25965 9.85828 4.75479L12.154 2.50779C11.5154 1.72481 10.7049 1.09277 9.78249 0.658606C8.86014 0.224447 7.8497 -0.000662895 6.82627 2.85904e-06C3.05646 2.85904e-06 0 2.99372 0 6.68337C0 10.3735 3.05646 13.3663 6.82627 13.3663C8.9818 13.3663 10.9039 12.3871 12.154 10.858L9.85828 8.61147C9.53065 9.10683 9.08155 9.514 8.55194 9.79585C8.02233 10.0777 7.42907 10.2252 6.82627 10.225C5.86681 10.225 4.94664 9.85191 4.2682 9.18772C3.58975 8.52352 3.20861 7.62269 3.20861 6.68337C3.20861 5.74406 3.58975 4.84323 4.2682 4.17903C4.94664 3.51484 5.86681 3.1417 6.82627 3.1417Z" fill="#211E1E"/>
<path fill-rule="evenodd" clip-rule="evenodd" d="M70.9923 0C67.2225 0 64.1655 2.99323 64.1655 6.68337C64.1655 10.3735 67.2225 13.3667 70.9923 13.3667C74.7621 13.3667 77.8171 10.3735 77.8171 6.68337V0H70.9928H70.9923ZM74.6105 6.68337C74.6105 7.62255 74.2294 8.52327 73.551 9.18737C72.8727 9.85147 71.9526 10.2246 70.9933 10.2246C70.034 10.2246 69.1139 9.85147 68.4356 9.18737C67.7572 8.52327 67.3761 7.62255 67.3761 6.68337C67.376 5.74415 67.7569 4.84333 68.4352 4.17906C69.1134 3.51479 70.0334 3.14147 70.9928 3.14121H74.6105V6.68337Z" fill="#211E1E"/>
<path fill-rule="evenodd" clip-rule="evenodd" d="M46.3283 1.35621C45.4004 0.448326 44.2361 0 42.7186 0C41.2221 0 39.3753 0.77114 38.3836 2.48533C37.6982 1.08614 36.248 0 34.5415 0C33.2225 0 31.9804 0.563093 30.9587 1.68879V0.216837H27.583V13.0771H30.9587V5.99135C30.9832 4.97944 31.294 4.38753 31.8108 3.86449C32.3286 3.34193 32.9925 3.16758 33.6969 3.16758C35.1231 3.16758 35.9373 4.29328 35.9373 6.10416V13.0771H39.313V5.99135C39.3369 4.97944 39.6487 4.38753 40.165 3.86449C40.6828 3.34193 41.3468 3.16758 42.0517 3.16758C43.4774 3.16758 44.2915 4.29328 44.2915 6.10416V13.0771H47.8149V5.30714C47.8149 3.57 47.2557 2.26507 46.3283 1.35621ZM87.8925 6.42356C87.3258 6.09537 85.9425 5.59088 84.7867 5.16014C82.9424 4.47349 82.5279 4.01637 82.5868 3.54314C82.6431 3.09433 83.3999 2.75686 84.5772 2.81205C85.7545 2.86674 86.7392 3.05916 88.1878 3.65058L89.3078 1.08907C87.5882 0.322326 86.0114 0 84.8036 0C82.8432 0 81.7138 0.303767 80.6642 1.05977C79.6156 1.81528 79.1631 2.751 79.1631 3.96412C79.1631 5.1616 79.9922 6.20721 81.1022 6.86505C81.6449 7.18737 82.4461 7.62544 83.7301 8.0596C84.5387 8.33309 85.0346 8.47228 85.4541 8.68765C85.8981 8.91621 86.0328 9.17846 86.0328 9.4837C86.0328 9.86365 85.5624 10.3393 84.413 10.3393C83.0013 10.3393 81.3052 9.82849 79.7972 8.97091L78.3415 11.6628C79.3537 12.2826 79.9294 12.5272 81.0323 12.873C82.1348 13.2173 83.1988 13.3907 84.226 13.3907C85.7659 13.3907 87.0405 12.9931 88.0736 12.2332C88.9641 11.5778 89.5402 10.5527 89.5402 9.27223C89.5402 8.23053 89.1626 7.15758 87.8925 6.42356Z" fill="#211E1E"/>
</svg>
