<svg width="71" height="63" viewBox="0 0 71 63" fill="none" xmlns="http://www.w3.org/2000/svg">
<path d="M56.5952 46.7071C55.8053 46.3354 54.7817 46.0326 53.786 45.8811C52.6596 45.7114 51.5191 46.1061 50.7386 46.9366C43.5544 54.5861 34.9167 58.7985 26.4051 58.7985C18.749 58.7985 12.2146 54.1455 9.3494 46.6291C9.12038 46.0281 8.50341 45.7481 7.84434 45.8995C7.5826 45.9591 7.30215 46.1335 7.34889 46.3722C9.312 55.7377 16.5101 62.029 26.1294 62.8C37.8895 63.7406 49.8457 58.2019 56.9551 48.0792C57.2963 47.5928 57.1093 46.9503 56.5952 46.7071Z" fill="#211E1E"/>
<path d="M61.62 20.6796C64.747 20.6796 67.4158 21.5193 69.5426 23.5798C69.767 23.7954 69.7623 24.1487 69.5239 24.3552L66.1585 27.3103C66.0557 27.4022 65.9295 27.4434 65.8033 27.4434C65.6724 27.4434 65.5369 27.3975 65.4294 27.3013C64.4151 26.4064 63.2465 26.0301 61.849 26.0301C58.7874 26.0301 56.7589 28.2695 56.7589 31.1329C56.7589 34.3083 58.7874 36.988 62.2089 36.988C63.6765 36.988 65.0555 36.4145 66.1211 35.4417C66.2286 35.3453 66.3642 35.2949 66.495 35.2949C66.6166 35.2949 66.7428 35.3361 66.8409 35.4188L70.3605 38.3556C70.6129 38.5712 70.6176 38.9292 70.3839 39.1494C68.1076 41.2648 65.1536 42.3019 61.9098 42.3019C55.4409 42.3019 50.3228 37.9426 50.3228 31.5045C50.3275 25.3601 55.4315 20.6796 61.62 20.6796Z" fill="#211E1E"/>
<path d="M47.7192 21.0192C48.1165 21.0192 48.3782 21.4231 48.2099 21.7764L39.8526 39.3468C39.0814 40.9666 36.9174 41.999 35.6085 41.999C33.7857 41.999 32.1265 40.9574 31.3599 39.3329L23.0587 21.7764C22.8904 21.4231 23.1662 21.0237 23.5495 21.0237H29.0742C29.2845 21.0237 29.4902 21.1523 29.5743 21.3496L35.2533 34.5973C35.3234 34.7625 35.4824 34.8452 35.6366 34.8452C35.7908 34.8452 35.9499 34.7625 36.02 34.5928L41.6709 21.3451C41.7551 21.1478 41.9654 21.0192 42.1711 21.0192H47.7192Z" fill="#211E1E"/>
<path d="M11.7426 20.6796C14.8696 20.6796 17.5385 21.5193 19.6652 23.5798C19.8895 23.7954 19.8849 24.1487 19.6465 24.3552L16.2811 27.3103C16.1782 27.4022 16.0521 27.4434 15.9259 27.4434C15.795 27.4434 15.6595 27.3975 15.552 27.3013C14.5377 26.4064 13.3692 26.0301 11.9716 26.0301C8.91009 26.0301 6.88153 28.2695 6.88153 31.1329C6.88153 34.3083 8.91009 36.988 12.3315 36.988C13.7992 36.988 15.178 36.4145 16.2437 35.4417C16.3512 35.3453 16.4867 35.2949 16.6176 35.2949C16.7393 35.2949 16.8655 35.3361 16.9636 35.4188L20.4831 38.3556C20.7355 38.5712 20.7402 38.9292 20.5065 39.1494C18.2303 41.2648 15.2762 42.3019 12.0324 42.3019C5.56344 42.3019 0.445312 37.9426 0.445312 31.5045C0.45001 25.3601 5.54943 20.6796 11.7426 20.6796Z" fill="#211E1E"/>
<path d="M13.0046 16.2928C13.7946 16.6646 14.8182 16.9673 15.8137 17.1188C16.9403 17.2885 18.0807 16.8939 18.8613 16.0634C26.0453 8.41391 34.683 4.20142 43.1946 4.20142C50.8508 4.20142 57.3852 8.85443 60.2504 16.3708C60.4794 16.972 61.0964 17.2519 61.7554 17.1004C62.0172 17.0408 62.2976 16.8664 62.2509 16.6278C60.2878 7.26214 53.0896 0.970943 43.4704 0.200028C31.7104 -0.740658 19.754 4.79797 12.6447 14.9207C12.3035 15.4071 12.4905 16.0497 13.0046 16.2928Z" fill="#211E1E"/>
</svg>
