<svg width="97" height="33" viewBox="0 0 97 33" fill="none" xmlns="http://www.w3.org/2000/svg">
<path d="M24.1392 11.8014H12.8712V15.1449H20.8632C20.4672 19.8249 16.5675 21.8337 12.8847 21.8337C11.718 21.8388 10.562 21.6115 9.48414 21.1649C8.40627 20.7184 7.42815 20.0616 6.6069 19.2329C5.78565 18.4042 5.13772 17.4202 4.70094 16.3383C4.26415 15.2565 4.04726 14.0984 4.06293 12.9318C4.06293 7.87021 7.98153 3.97321 12.8955 3.97321C16.6863 3.97321 18.9201 6.38971 18.9201 6.38971L21.2601 3.96511C21.2601 3.96511 18.2541 0.619812 12.7731 0.619812C5.79363 0.619812 0.394531 6.51031 0.394531 12.8724C0.394531 19.1067 5.47323 25.1862 12.9495 25.1862C19.5258 25.1862 24.3399 20.6808 24.3399 14.019C24.3399 12.6132 24.1356 11.8014 24.1356 11.8014H24.1392Z" fill="#211E1E"/>
<path d="M33.3706 9.3795C28.7464 9.3795 25.4326 12.9948 25.4326 17.2095C25.4326 21.4881 28.6456 25.17 33.4246 25.17C37.75 25.17 41.2933 21.8643 41.2933 17.3013C41.2933 12.0813 37.1713 9.3786 33.3706 9.3786V9.3795ZM33.4156 12.4809C35.689 12.4809 37.8436 14.3196 37.8436 17.2815C37.8436 20.1795 35.698 22.0713 33.4048 22.0713C30.8848 22.0713 28.9048 20.0535 28.9048 17.2581C28.9048 14.5221 30.8668 12.4809 33.4228 12.4809H33.4156Z" fill="#211E1E"/>
<path d="M50.6333 9.3795C46.0091 9.3795 42.6953 12.9948 42.6953 17.2095C42.6953 21.4881 45.9083 25.17 50.6873 25.17C55.0127 25.17 58.556 21.8643 58.556 17.3013C58.556 12.0813 54.434 9.3786 50.6333 9.3786V9.3795ZM50.6783 12.4809C52.9517 12.4809 55.1063 14.3196 55.1063 17.2815C55.1063 20.1795 52.9607 22.0713 50.6675 22.0713C48.1475 22.0713 46.1675 20.0535 46.1675 17.2581C46.1675 14.5221 48.1295 12.4809 50.6855 12.4809H50.6783Z" fill="#211E1E"/>
<path d="M67.5651 9.38849C63.3207 9.38849 59.9854 13.1055 59.9854 17.2779C59.9854 22.0299 63.8526 25.1817 67.4913 25.1817C69.7413 25.1817 70.9384 24.288 71.8114 23.2629V24.8199C71.8114 27.5442 70.1572 29.1759 67.6606 29.1759C65.2486 29.1759 64.039 27.3822 63.6106 26.3652L60.5757 27.6252C61.6521 29.9022 63.8194 32.2755 67.6858 32.2755C71.9158 32.2755 75.1216 29.6178 75.1216 24.0432V9.86279H71.824V11.2002C70.807 10.1022 69.4137 9.38849 67.5669 9.38849H67.5651ZM67.8712 12.4845C69.952 12.4845 72.0885 14.2611 72.0885 17.295C72.0885 20.3793 69.9556 22.0785 67.8253 22.0785C65.5627 22.0785 63.4576 20.2425 63.4576 17.3238C63.4576 14.2926 65.6446 12.4845 67.8712 12.4845Z" fill="#211E1E"/>
<path d="M89.8598 9.36963C85.8566 9.36963 82.4951 12.5556 82.4951 17.2536C82.4951 22.227 86.2418 25.1763 90.2351 25.1763C93.5759 25.1763 95.6351 23.3493 96.8501 21.7113L94.1204 19.8951C93.4121 20.9931 92.2277 22.0686 90.2522 22.0686C88.0328 22.0686 87.0122 20.8536 86.3795 19.6746L96.9662 15.2826L96.4262 13.9956C95.4038 11.4756 93.017 9.36963 89.8598 9.36963ZM89.9975 12.4062C91.4402 12.4062 92.4779 13.173 92.9189 14.0928L85.8485 17.0475C85.5425 14.7597 87.7115 12.4062 89.9885 12.4062H89.9975Z" fill="#211E1E"/>
<path d="M77.4399 24.7083H80.9175V1.43701H77.4399V24.7083Z" fill="#211E1E"/>
</svg>
