<svg width="71" height="57" viewBox="0 0 71 57" fill="none" xmlns="http://www.w3.org/2000/svg">
<path d="M11.3788 47.1863C11.3788 47.1863 10.9407 45.7657 10.1711 44.9963C9.40143 44.2268 3.46927 38.296 2.59309 37.4199C1.71691 36.5439 0 34.8393 0 32.3533C0 29.8673 2.09578 28.0916 4.62966 27.0735C7.16353 26.0555 48.3688 9.34019 51.4237 8.06168C54.4785 6.78318 58.8714 4.81808 60.8606 3.87103C62.8498 2.92398 68.4859 0.257476 68.6724 0.156865C68.8589 0.0562539 68.9595 0 69.0483 0C69.1371 0 69.22 0.0769589 69.22 0.17757C69.22 0.278181 69.1549 0.417289 69.1342 0.48537C69.1135 0.55345 67.4084 5.62304 66.0586 7.3514C64.7088 9.07976 64.0457 9.81369 57.5807 12.0866C51.1158 14.3595 7.94497 29.5122 6.85566 29.9383C5.76635 30.3645 3.30349 31.1221 3.30349 32.9452C3.30349 34.4131 4.77171 35.5496 5.19797 35.9284C5.62423 36.3072 17.228 47.1863 17.228 47.1863L11.3788 47.1863Z" fill="#211E1E"/>
<path d="M6.28747 35.4252C6.28747 35.4252 5.23364 34.4486 5.09156 34.3065C4.94947 34.1645 4.6416 33.6318 4.6416 33.253C4.6416 32.8742 4.71265 31.9626 6.31112 31.4654C7.9096 30.9682 45.2193 18.6922 47.2559 18.0529C49.2925 17.4137 61.3195 13.4243 63.4597 12.4654C63.9126 12.2701 63.9925 12.2227 64.0636 12.2227C64.1346 12.2227 64.2264 12.2671 64.2264 12.3766C64.2264 12.4861 64.176 12.569 64.1376 12.6312C64.0991 12.6933 62.0388 16.9224 60.8311 18.2542C59.6233 19.586 58.5399 20.5271 56.3376 21.0776C54.1352 21.628 19.8035 30.8617 19.5815 30.9238C19.3595 30.986 19.1019 31.1902 19.1019 31.4654C19.1019 31.9182 19.4749 31.9537 19.4749 31.9537L6.28747 35.4252Z" fill="#211E1E"/>
<path d="M7.05103 36.1L10.0881 38.9234L25.842 35.958C25.842 35.958 25.4335 35.7005 25.4335 35.403C25.4335 35.1056 25.6733 34.9103 25.9619 34.8526C26.2505 34.7949 49.091 30.3645 50.5119 30.1159C51.9327 29.8673 53.8035 29.453 55.331 27.6063C56.8584 25.7595 58.34 23.2928 58.3888 23.2173C58.4377 23.1418 58.4554 23.0974 58.4554 23.053C58.4554 23.0087 58.4288 22.8977 58.3133 22.8977C58.1979 22.8977 58.1357 22.9243 58.0203 22.9687C57.9048 23.0131 7.05103 36.1 7.05103 36.1Z" fill="#211E1E"/>
<path d="M51.7198 31.9448C51.6552 31.9595 10.8105 39.6099 10.8105 39.6099L14.3509 42.8831L33.2426 40.5037C33.2426 40.5037 32.8874 40.3735 32.8874 40.0065C32.8874 39.6395 33.2367 39.5034 33.438 39.4679C33.6393 39.4324 43.1591 38.0354 44.278 37.8697C45.397 37.7039 47.2382 37.3192 48.7893 35.6856C50.3404 34.0519 51.8679 32.2407 51.9271 32.1697C51.9863 32.0987 51.9951 32.0543 51.9951 32.0188C51.9951 31.9833 51.9507 31.9093 51.8619 31.9093C51.8382 31.9093 51.7849 31.9301 51.7198 31.9448Z" fill="#211E1E"/>
<path d="M15.1914 43.6467L18.9804 47.1981H43.9877L34.6336 41.3738L15.1914 43.6467Z" fill="#211E1E"/>
<path d="M13.8967 49.8972C14.0033 49.8854 14.9032 49.7552 14.9032 49.7552V48.7016H8.51329V49.7552C8.51329 49.7552 9.41316 49.8854 9.51973 49.8972C9.62629 49.909 10.0999 50.0156 10.0999 50.5483V51.8861H5.17019V50.5483C5.17019 50.0156 5.64381 49.909 5.75037 49.8972C5.85694 49.8854 6.75681 49.7552 6.75681 49.7552V48.7016H0.366943V49.7552C0.366943 49.7552 1.26682 49.8854 1.37338 49.8972C1.47995 49.909 1.95356 50.0156 1.95356 50.5483V54.8546C1.95356 55.3873 1.47995 55.4938 1.37338 55.5057C1.26682 55.5175 0.366943 55.6175 0.366943 55.6175V56.6711H6.75681V55.6175C6.75681 55.6175 5.85694 55.5175 5.75037 55.5057C5.64381 55.4938 5.17019 55.3873 5.17019 54.8546V53.5079H10.0999V54.8546C10.0999 55.3873 9.62629 55.4938 9.51973 55.5057C9.41316 55.5175 8.51329 55.6175 8.51329 55.6175V56.6711H14.9032V55.6175C14.9032 55.6175 14.0033 55.5175 13.8967 55.5057C13.7902 55.4938 13.3165 55.3873 13.3165 54.8546V50.5483C13.3165 50.0156 13.7902 49.909 13.8967 49.8972Z" fill="#211E1E"/>
<path d="M21.7629 48.4412C17.6424 48.4412 15.2388 49.9363 15.2388 52.7072C15.2388 55.4782 17.6424 56.9733 21.7629 56.9733C25.8835 56.9733 28.2871 55.4782 28.2871 52.7072C28.2871 49.9363 25.8835 48.4412 21.7629 48.4412ZM21.7629 55.5012C20.9578 55.5012 18.933 55.5247 18.933 52.7072C18.933 49.8898 20.9578 49.9133 21.7629 49.9133C22.5681 49.9133 24.5929 49.8898 24.5929 52.7072C24.5929 55.5247 22.5681 55.5012 21.7629 55.5012Z" fill="#211E1E"/>
<path d="M37.6236 48.6897H42.7565V49.7551C42.7565 49.7551 41.8625 49.8439 41.6893 49.8661C41.5161 49.8883 41.1343 50.0614 41.1343 50.5497C41.1343 51.0381 41.1343 56.3696 41.1343 56.6804C41.1343 56.6804 37.3572 56.6804 37.1677 56.6804C36.9782 56.6804 36.7029 56.6271 36.5431 56.4318C36.3833 56.2364 32.2006 50.7673 32.2006 50.7673C32.2006 51.2556 32.2006 54.6117 32.2006 54.9224C32.2006 55.2332 32.5069 55.4418 32.7334 55.4729C32.9598 55.504 33.8168 55.612 33.8168 55.612V56.6804L28.678 56.6804V55.615C28.678 55.615 29.572 55.5261 29.7451 55.504C29.9183 55.4818 30.3002 55.3086 30.3002 54.8203C30.3002 54.332 30.3002 50.7673 30.3002 50.4565C30.3002 50.1458 29.9938 49.9371 29.7673 49.9061C29.5409 49.875 28.6839 49.7818 28.6839 49.7818V48.6897C28.6839 48.6897 34.0773 48.6897 34.2668 48.6897C34.4562 48.6897 34.7315 48.743 34.8913 48.9383C35.0512 49.1336 39.2339 54.6028 39.2339 54.6028C39.2339 54.1145 39.2339 50.7584 39.2339 50.4476C39.2339 50.1369 38.9275 49.9283 38.701 49.8972C38.4746 49.8661 37.6236 49.7729 37.6236 49.7729" fill="#211E1E"/>
<path d="M51.5657 48.6897C50.0171 48.6897 43.295 48.6897 43.295 48.6897V49.7818C43.295 49.7818 44.152 49.875 44.3784 49.9061C44.6049 49.9371 44.9112 50.1458 44.9112 50.4565C44.9112 50.7673 44.9112 54.332 44.9112 54.8203C44.9112 55.3086 44.5294 55.4818 44.3562 55.504C44.183 55.5261 43.2891 55.615 43.2891 55.615V56.6804L51.5657 56.6804C54.2447 56.6804 56.5061 55.4374 56.5061 52.6495C56.5061 49.8617 53.9574 48.6897 51.5657 48.6897ZM50.7605 55.1651H48.0135V50.2287C48.0135 50.2287 49.754 50.2287 50.7723 50.2287C51.7906 50.2287 52.8089 50.5719 52.8089 52.6554C52.8089 54.7389 52.0037 55.1651 50.7605 55.1651Z" fill="#211E1E"/>
<path d="M69.9068 55.4951C69.4939 55.4507 69.2807 55.0556 69.2275 54.9757C69.1742 54.8958 65.4533 49.218 65.3068 49.0049C65.1602 48.7918 64.8672 48.703 64.7162 48.703C64.5652 48.703 58.5399 48.703 58.5399 48.703V49.7862C58.5399 49.7862 59.8497 49.9149 60.014 49.9327C60.1783 49.9505 60.347 50.2523 60.347 50.3544C60.347 50.4565 60.2893 50.5542 60.2538 50.6164C60.2183 50.6785 57.5941 54.9624 57.4564 55.1755C57.3188 55.3885 57.0879 55.4862 56.9192 55.4995C56.7505 55.5128 55.8757 55.5913 55.8757 55.5913V56.6804H60.9672V55.6268L59.9371 55.4966C59.7062 55.4551 59.6411 55.1947 59.6411 55.1296C59.6411 55.0645 59.6766 54.9639 59.7417 54.8633C59.7564 54.8405 59.9052 54.6 60.1266 54.2418H65.041C65.2774 54.6 65.436 54.8405 65.4507 54.8633C65.5158 54.9639 65.5514 55.0645 65.5514 55.1296C65.5514 55.1947 65.4862 55.4551 65.2554 55.4966L64.0813 55.5913V56.6804H70.9843V55.6268C70.9843 55.6268 70.3198 55.5395 69.9068 55.4951ZM60.9889 52.8449C61.7199 51.6603 62.5005 50.3944 62.5005 50.3944C62.5005 50.3944 63.3366 51.6603 64.1188 52.8449H60.9889Z" fill="#211E1E"/>
</svg>
