<svg width="79" height="29" viewBox="0 0 79 29" fill="none" xmlns="http://www.w3.org/2000/svg">
<path d="M24.52 0.156067C19.0017 2.56258 9.89051 5.65154 12.3351 9.96141C15.3351 15.1693 32.7056 12.8708 26.8537 19.7663C22.9277 24.3997 21.1133 26.6628 20.261 28.2429C27.6685 26.1238 32.5571 18.7969 31.3722 10.9312C30.7054 6.36993 28.1127 2.527 24.52 0.156067ZM3.03897 4.39462C0.890892 7.51904 -0.109163 11.4341 0.483629 15.4928C1.74259 24.0403 9.66869 29.9665 18.1871 28.7095C18.2981 28.6741 18.4091 28.638 18.5204 28.638C22.1869 21.1671 14.2982 21.0959 16.7426 17.1091C19.0387 13.4097 2.66837 13.4096 3.03897 4.39462ZM36.178 4.51977V23.7345H40.8447V6.85417C40.8447 5.56092 39.8074 4.51977 38.5115 4.51977H36.178ZM61.7116 4.55357V23.7329H70.8593C75.452 23.7329 78.1188 21.7574 78.1188 18.3455V18.3087C78.0814 16.118 77.1186 14.6817 74.933 13.6763C76.3409 12.7062 77.0446 11.4134 77.0446 9.72532V9.6533C77.0446 8.28852 76.5997 7.21121 75.674 6.27756C74.5262 5.1281 72.7858 4.55357 70.6006 4.55357H61.7116ZM42.6617 4.56685V23.7457H50.1797C53.0319 23.7457 55.6616 22.7757 57.5134 20.9799C59.3285 19.2206 60.3645 16.8139 60.3645 14.1564V14.0846C60.4026 8.55325 56.1058 4.56685 50.2173 4.56685H42.6617ZM16.2406 8.23742C18.3834 8.18147 20.5054 10.3455 18.224 10.2847C15.5575 10.1771 14.4836 8.84798 15.0757 8.52502C15.4461 8.33417 15.8437 8.24778 16.2406 8.23742ZM66.2672 8.75553H70.0077C71.0822 8.75553 72.4148 9.04314 72.4148 10.3716V10.4077C72.4148 11.521 71.5262 12.0958 69.7482 12.0958H66.2672V8.75553ZM47.3652 8.8406H50.2173C53.4024 8.8406 55.5135 10.9598 55.5135 14.1564V14.192C55.5135 17.3524 53.3656 19.4719 50.2173 19.4719H47.3652V8.8406ZM20.2917 9.84581C20.4571 9.85072 20.689 9.89631 21.0014 9.99731C22.4461 10.4642 22.2242 11.1468 21.2611 11.0748C20.4485 10.984 19.3988 9.81931 20.2917 9.84581ZM22.9946 11.5761C23.0318 11.5751 23.0711 11.5757 23.1128 11.578C23.7795 11.578 24.7425 12.4397 23.3351 12.1525C22.3976 11.9503 22.4367 11.5905 22.9946 11.5761ZM66.2672 16.0824H70.7117C72.5258 16.0824 73.4519 16.657 73.4519 17.8064V17.8426C73.4148 19.0272 72.5633 19.6024 70.8224 19.6024H66.2672V16.0824Z" fill="#211E1E"/>
<path d="M16.7798 17.0724C14.2983 21.0597 22.2244 21.1316 18.5574 28.6021C18.4465 28.6379 18.3355 28.6379 18.2242 28.674C9.66877 29.9306 1.74276 24.0045 0.483796 15.4563C-0.108996 11.3981 0.928294 7.48324 3.03904 4.35869C2.66844 13.3736 19.0761 13.3736 16.7798 17.0724ZM20.261 28.2428C21.1133 26.6627 22.9278 24.3637 26.8538 19.7662C32.7427 12.8706 15.3352 15.1693 12.3353 9.96144C9.8907 5.65156 19.0389 2.56258 24.5576 0.156073C28.1502 2.52701 30.7427 6.36986 31.4094 10.9671C32.5947 18.7607 27.6685 26.1236 20.261 28.2428ZM15.1131 8.48889C14.5204 8.81197 15.5577 10.177 18.2614 10.249C20.9281 10.3208 17.4833 7.23185 15.1131 8.48889ZM21.0391 9.96144C19.0389 9.31492 20.3352 10.9311 21.2983 11.0391C22.2613 11.1106 22.4463 10.4284 21.0391 9.96144ZM23.113 11.5417C22.4463 11.5057 22.3353 11.9011 23.3353 12.1165C24.7427 12.4038 23.7797 11.5417 23.113 11.5417Z" fill="#211E1E"/>
</svg>
