<svg width="85" height="24" viewBox="0 0 85 24" fill="none" xmlns="http://www.w3.org/2000/svg">
<path d="M64.3778 14.0365L68.1165 19.9264C68.2205 20.0874 68.1071 20.2967 67.9181 20.2967H63.5778C63.4959 20.2967 63.4171 20.2548 63.3762 20.1808L58.2862 12.0689C58.2389 11.9916 58.2389 11.8982 58.283 11.8177C58.3271 11.7372 58.4059 11.6921 58.4972 11.6921H60.0437C60.5792 11.6921 61.0831 11.4763 61.4674 11.0867C61.8674 10.6809 62.0848 10.1367 62.0785 9.55706C62.069 8.46217 61.3855 7.66998 60.4501 7.66998H56.8499V20.0584C56.8499 20.1904 56.7428 20.2999 56.6105 20.2999H52.604C52.4717 20.2999 52.3646 20.1936 52.3646 20.0584V4.74275C52.3646 3.99243 52.941 3.38058 53.6466 3.38058H60.5666C62.2139 3.38058 63.6313 3.97311 64.7873 5.14207C65.9621 6.33035 66.5322 7.73117 66.5322 9.42825C66.5322 11.2413 65.7794 12.9223 64.5164 13.9238L64.3778 14.0365ZM75.1594 11.9658L71.0269 3.52227C70.9891 3.43532 70.9041 3.38058 70.8096 3.38058H66.3716C66.1952 3.38058 66.0787 3.56735 66.1574 3.72837L73.9719 19.585C74.1956 20.0197 74.6554 20.2967 75.1625 20.2999C75.6633 20.3096 76.1169 20.0391 76.3594 19.585L84.2149 3.73159C84.2937 3.57057 84.1771 3.3838 84.0007 3.3838H79.5123C79.4179 3.3838 79.3328 3.43854 79.295 3.52549L75.1594 11.9658ZM48.8306 3.49006C48.3109 3.27431 47.8101 3.37414 47.3408 3.79599L40.2255 11.354L33.1511 3.83785C32.6692 3.416 32.159 3.27753 31.6393 3.48684C31.1007 3.7026 30.7636 4.20175 30.7636 4.79106V20.0616C30.7636 20.1936 30.8707 20.2999 31.003 20.2999H34.9874C35.1197 20.2999 35.2268 20.1936 35.2268 20.0616V12.5938L39.3247 16.8639C39.8097 17.363 40.6476 17.3598 41.1263 16.8671L45.2273 12.5938V20.0616C45.2273 20.1936 45.3344 20.2999 45.4667 20.2999H49.4511C49.5834 20.2999 49.6905 20.1936 49.6905 20.0616V4.78784C49.6873 4.20497 49.3598 3.70904 48.8306 3.49006ZM23.3176 1.91535C23.3176 1.57078 23.1286 1.2874 22.8105 1.15537C22.4955 1.02333 22.1617 1.09096 21.9191 1.3357L11.4179 11.9433L15.2259 15.7883C15.418 15.9815 15.522 16.2391 15.522 16.5129V19.5013C15.522 20.1775 14.9771 20.7282 14.3062 20.7282H6.86016V22.0807C6.86016 22.5348 7.22553 22.9051 7.67595 22.9051H22.505C22.9554 22.9051 23.3208 22.5348 23.3208 22.0807V1.91535H23.3176ZM6.86331 16.5418L6.86016 19.6365H14.303C14.3786 19.6365 14.4385 19.5753 14.4385 19.4981V16.5386L10.6525 12.7162L6.86331 16.5418ZM5.7798 19.6397L5.78295 16.5161C5.78295 16.2424 5.88689 15.988 6.07902 15.7947L9.89022 11.9465L2.65839 4.6397C2.47885 4.45615 2.25207 4.36276 2.01584 4.36276C1.89615 4.36276 1.77331 4.38852 1.65047 4.43683C1.2914 4.58496 1.08037 4.91021 1.08037 5.29986V18.7059C1.08037 19.2211 1.49613 19.6397 2.00324 19.6397H5.7798ZM23.2263 0.150639C23.9476 0.450125 24.398 1.1296 24.398 1.91857V22.0839C24.398 23.1402 23.5475 24 22.5018 24H7.6728C6.62708 24 5.77665 23.1402 5.77665 22.0839V20.7314H2.00324C0.900829 20.7282 0 19.8201 0 18.7059V5.29986C0 4.46581 0.475613 3.74769 1.23785 3.42888C2.00009 3.11007 2.83793 3.27753 3.42063 3.86684L10.6525 11.1736L21.16 0.566055C21.7112 0.00894713 22.505 -0.152067 23.2263 0.150639Z" fill="#211E1E"/>
</svg>
