<svg width="129" height="38" viewBox="0 0 129 38" fill="none" xmlns="http://www.w3.org/2000/svg">
<path d="M45.7137 20.4918V22.0494C45.3296 21.5186 45.0224 21.0977 44.792 20.7867L38.9414 12.9497H37.311V25.0595H39.1092V15.9598C39.4938 16.4905 39.801 16.9114 40.0308 17.2224L45.8814 25.0595H47.5053V12.9497H45.7137V20.4918Z" fill="#211E1E"/>
<path d="M54.9825 16.661C54.3458 16.2805 53.6136 16.0856 52.8701 16.0986C52.2808 16.0912 51.6959 16.1998 51.1494 16.4181C50.6369 16.6288 50.1756 16.9453 49.7964 17.3466C49.4045 17.7623 49.1042 18.2541 48.9144 18.7909C48.7032 19.3943 48.5997 20.0295 48.6084 20.668C48.6084 21.581 48.7949 22.3796 49.1679 23.0637C49.5206 23.7299 50.0523 24.2866 50.7042 24.6724C51.3872 25.0674 52.167 25.268 52.9577 25.2521C53.4631 25.253 53.9659 25.1801 54.4498 25.0357C54.936 24.8904 55.3875 24.6491 55.777 24.3263C56.2008 23.971 56.5535 23.5399 56.8166 23.0555L55.4894 22.242C55.3246 22.5714 55.0996 22.8676 54.8258 23.1157C54.5782 23.3354 54.2864 23.5006 53.9696 23.6005C53.6413 23.7006 53.2994 23.7502 52.9558 23.7475C52.4842 23.7545 52.0196 23.6339 51.6121 23.3988C51.2043 23.1547 50.8793 22.7959 50.6784 22.368C50.4857 21.9575 50.3752 21.5138 50.3531 21.0615H56.9576C56.9687 20.981 56.9742 20.8999 56.9742 20.8187V20.5941C56.9742 19.6945 56.7966 18.9075 56.4415 18.2331C56.1111 17.5856 55.6061 17.0414 54.9825 16.661ZM51.0102 18.339C51.2183 18.0732 51.4919 17.8647 51.8047 17.7337C52.1364 17.5975 52.4926 17.5295 52.8517 17.5338C53.1777 17.5255 53.5014 17.5895 53.7991 17.7213C54.0969 17.853 54.3611 18.0491 54.5724 18.2952C54.8925 18.6604 55.0983 19.1622 55.1899 19.8007H50.4038C50.4296 19.64 50.4659 19.4811 50.5125 19.325C50.6134 18.9679 50.7823 18.6332 51.0102 18.339Z" fill="#211E1E"/>
<path d="M64.5252 16.6692C63.8155 16.2799 63.0147 16.083 62.2036 16.0986C61.5938 16.0929 60.9888 16.2045 60.422 16.4272C59.8841 16.6399 59.3966 16.961 58.9907 17.3704C58.5789 17.7853 58.2577 18.2797 58.047 18.8229C57.8206 19.411 57.708 20.036 57.7152 20.6653C57.7152 21.5649 57.9102 22.3607 58.3004 23.0527C58.6744 23.7287 59.2305 24.2884 59.9068 24.6696C60.5301 25.0039 61.2196 25.1988 61.9271 25.2408C62.6345 25.2827 63.3427 25.1707 64.0017 24.9125C64.5382 24.695 65.0259 24.3745 65.4367 23.9694C65.8491 23.5582 66.1703 23.0663 66.3795 22.525C66.607 21.9313 66.7196 21.3003 66.7113 20.6653C66.7113 19.7523 66.5163 18.9538 66.1261 18.2696C65.7523 17.5997 65.1981 17.0456 64.5252 16.6692ZM64.7528 21.9453C64.6285 22.301 64.4322 22.6278 64.1759 22.9057C63.932 23.1648 63.6342 23.3682 63.3031 23.5019C62.9542 23.6429 62.5804 23.7137 62.2036 23.7101C61.7157 23.716 61.2354 23.5897 60.8147 23.3449C60.3946 23.0952 60.0554 22.7319 59.8368 22.2977C59.5984 21.8418 59.4792 21.2971 59.4792 20.6635C59.4712 20.2291 59.5391 19.7967 59.6801 19.3853C59.8033 19.0338 59.9963 18.7103 60.2478 18.434C60.4882 18.1707 60.787 17.9663 61.1206 17.8369C61.4656 17.703 61.8331 17.6354 62.2036 17.6379C62.7026 17.6292 63.1946 17.7555 63.6266 18.003C64.0457 18.2498 64.3857 18.609 64.6072 19.0393C64.8459 19.4885 64.9657 20.0317 64.9657 20.6653C64.9711 21.101 64.899 21.5343 64.7528 21.9453Z" fill="#211E1E"/>
<path d="M73.8236 16.661C73.1869 16.2805 72.4547 16.0856 71.7112 16.0986C71.122 16.0913 70.5371 16.1999 69.9905 16.4181C69.4783 16.6289 69.0174 16.9454 68.6385 17.3466C68.2463 17.7621 67.9459 18.254 67.7564 18.7909C67.5453 19.3943 67.4417 20.0295 67.4505 20.668C67.4505 21.581 67.6369 22.3796 68.0099 23.0637C68.3626 23.7299 68.8943 24.2866 69.5463 24.6724C70.2284 25.0659 71.0068 25.2655 71.796 25.2494C72.302 25.2503 72.8054 25.1774 73.29 25.033C73.7759 24.8871 74.2273 24.6458 74.6172 24.3236C75.0405 23.9679 75.3928 23.5369 75.6559 23.0527L74.3287 22.2393C74.1636 22.5684 73.9386 22.8646 73.6651 23.113C73.4173 23.3325 73.1256 23.4977 72.8089 23.5978C72.4805 23.6978 72.1386 23.7473 71.7951 23.7448C71.3235 23.7524 70.8587 23.6328 70.4504 23.3987C70.0441 23.1542 69.7204 22.7954 69.5205 22.368C69.3273 21.9576 69.2168 21.5138 69.1951 21.0615H75.7978C75.8096 20.9811 75.8155 20.8999 75.8153 20.8187V20.5941C75.8153 19.6945 75.6377 18.9075 75.2826 18.2331C74.9523 17.5856 74.4473 17.0414 73.8236 16.661ZM69.8513 18.339C70.0593 18.0734 70.3325 17.865 70.6449 17.7337C70.9772 17.5975 71.3341 17.5295 71.6937 17.5338C72.0195 17.5257 72.3431 17.5898 72.6406 17.7216C72.9382 17.8533 73.2023 18.0493 73.4135 18.2952C73.7342 18.6604 73.9398 19.1622 74.0301 19.8007H69.2458C69.2716 19.64 69.3079 19.4811 69.3546 19.325C69.4554 18.9679 69.6244 18.6332 69.8523 18.339H69.8513Z" fill="#211E1E"/>
<path d="M82.9406 16.514C82.4229 16.2296 81.8384 16.0863 81.2466 16.0986C80.6452 16.0971 80.0554 16.2618 79.5434 16.5742C79.1514 16.8169 78.8344 17.1618 78.6273 17.5712V16.2711H76.9158V25.0595H78.6273V19.8555C78.6273 19.1525 78.834 18.602 79.2475 18.2039C79.661 17.8058 80.1934 17.6068 80.8447 17.6068C81.4272 17.6068 81.8988 17.8028 82.2595 18.1948C82.6201 18.5867 82.8005 19.1175 82.8005 19.787V25.0631H84.5295V19.5058C84.5444 18.877 84.3972 18.2549 84.1018 17.6981C83.8342 17.2035 83.4319 16.7933 82.9406 16.514Z" fill="#211E1E"/>
<path d="M92.0039 16.6609C91.3667 16.2807 90.6344 16.0858 89.8906 16.0985C89.3013 16.0913 88.7165 16.1999 88.1699 16.4181C87.658 16.629 87.1974 16.9455 86.8188 17.3466C86.4272 17.7623 86.1271 18.2542 85.9377 18.7909C85.726 19.3942 85.6224 20.0294 85.6317 20.668C85.6317 21.581 85.8178 22.3795 86.1902 23.0637C86.5432 23.7297 87.0748 24.2863 87.7266 24.6723C88.4096 25.0673 89.1893 25.2679 89.98 25.2521C90.4857 25.2529 90.9888 25.18 91.4731 25.0357C91.9592 24.8902 92.4106 24.6489 92.8002 24.3263C93.2235 23.9706 93.5758 23.5396 93.8389 23.0554L92.5118 22.242C92.3473 22.5715 92.1222 22.8678 91.8482 23.1157C91.6009 23.3354 91.3094 23.5006 90.9929 23.6005C90.6645 23.7004 90.3226 23.75 89.9791 23.7475C89.5074 23.7553 89.0425 23.6357 88.6344 23.4015C88.2256 23.157 87.8998 22.7971 87.6989 22.368C87.5058 21.9581 87.3947 21.5151 87.3717 21.0633H93.9753C93.9867 20.9829 93.9925 20.9017 93.9928 20.8205V20.5959C93.9928 19.6963 93.8153 18.9093 93.4601 18.2349C93.1303 17.5875 92.6264 17.0428 92.0039 16.6609ZM88.0307 18.339C88.2388 18.0732 88.5124 17.8647 88.8252 17.7337C89.1572 17.5974 89.5137 17.5294 89.8731 17.5338C90.1989 17.5255 90.5225 17.5896 90.8201 17.7214C91.1177 17.8531 91.3817 18.0492 91.5929 18.2952C91.9136 18.6604 92.1194 19.1622 92.2104 19.8007H87.4243C87.4501 19.64 87.4864 19.4811 87.533 19.325C87.6339 18.9679 87.8028 18.6332 88.0307 18.339Z" fill="#211E1E"/>
<path d="M97.8094 16.4966C97.3965 16.7614 97.0619 17.1649 96.8057 17.7072V16.2711H95.0942V25.0594H96.8057V20.3713C96.8057 19.622 96.998 19.0222 97.3827 18.5718C97.5593 18.3564 97.7831 18.1836 98.0372 18.0667C98.2913 17.9498 98.5689 17.8918 98.849 17.8971H99.7218V16.0985H99.2149C98.717 16.0912 98.2281 16.2297 97.8094 16.4966Z" fill="#211E1E"/>
<path d="M106.532 17.7474C106.472 17.6424 106.407 17.5392 106.339 17.4388C106.064 17.0335 105.696 16.6987 105.265 16.4619C104.829 16.2184 104.296 16.0967 103.667 16.0967C103.129 16.0921 102.596 16.1981 102.101 16.408C101.625 16.61 101.197 16.9075 100.843 17.2817C100.483 17.6652 100.201 18.1145 100.014 18.6047C99.813 19.1363 99.7139 19.7004 99.7218 20.2681C99.7092 21.0129 99.8898 21.7485 100.246 22.4045C100.578 23.0147 101.065 23.5279 101.66 23.8926C102.264 24.2597 102.96 24.4497 103.668 24.4404C104.297 24.4404 104.83 24.3162 105.266 24.0679C105.695 23.8277 106.062 23.4936 106.34 23.091C106.408 22.9924 106.473 22.8911 106.533 22.787V24.025C106.533 24.602 106.41 25.0822 106.164 25.4693C105.929 25.8469 105.59 26.1501 105.186 26.3431C104.767 26.5419 104.307 26.6424 103.842 26.637C103.301 26.6447 102.769 26.5041 102.304 26.2308C101.84 25.9488 101.451 25.5602 101.17 25.0978L99.9642 26.0491C100.224 26.5105 100.575 26.9161 100.995 27.2423C101.394 27.5492 101.847 27.781 102.331 27.9262C103.582 28.2871 104.923 28.1918 106.11 27.6578C106.763 27.3443 107.309 26.8482 107.681 26.2308C108.065 25.602 108.257 24.8379 108.257 23.9383V16.2711H106.529L106.532 17.7474ZM106.235 21.6257C106.025 22.0113 105.714 22.3339 105.336 22.5597C104.933 22.7806 104.481 22.8966 104.021 22.8966C103.561 22.8966 103.109 22.7806 102.707 22.5597C102.324 22.336 102.01 22.0131 101.799 21.6257C101.573 21.2084 101.459 20.7407 101.467 20.2672C101.458 19.7883 101.572 19.315 101.799 18.8922C102.01 18.5047 102.324 18.1816 102.707 17.9583C103.109 17.7367 103.561 17.6205 104.021 17.6205C104.481 17.6205 104.934 17.7367 105.336 17.9583C105.715 18.1838 106.025 18.5065 106.235 18.8922C106.462 19.3151 106.576 19.7884 106.567 20.2672C106.575 20.7406 106.461 21.2082 106.235 21.6257Z" fill="#211E1E"/>
<path d="M111.56 12.8548C111.329 12.6538 111.03 12.546 110.723 12.5526C110.417 12.5449 110.121 12.653 109.893 12.8548C109.779 12.9587 109.69 13.0861 109.631 13.2281C109.572 13.3701 109.545 13.5231 109.552 13.6764C109.546 13.8271 109.574 13.9772 109.632 14.1161C109.691 14.2551 109.78 14.3796 109.893 14.4808C110.121 14.6829 110.417 14.7913 110.723 14.7839C111.03 14.7901 111.329 14.682 111.56 14.4808C111.676 14.381 111.767 14.257 111.827 14.1178C111.888 13.9787 111.916 13.8278 111.91 13.6764C111.917 13.5223 111.889 13.3686 111.829 13.2264C111.769 13.0842 111.677 12.9573 111.56 12.8548Z" fill="#211E1E"/>
<path d="M111.578 16.2711H109.866V25.0585H111.578V16.2711Z" fill="#211E1E"/>
<path d="M120.351 18.0012C120.144 17.5794 119.843 17.2098 119.47 16.9202C119.096 16.6337 118.669 16.4222 118.213 16.2976C117.727 16.1631 117.224 16.0961 116.72 16.0985C115.964 16.0864 115.218 16.2682 114.554 16.6262C113.908 16.9839 113.403 17.5481 113.122 18.2267L114.468 18.9899C114.631 18.5771 114.922 18.2257 115.298 17.9857C115.676 17.7422 116.139 17.6205 116.686 17.6205C117.077 17.6153 117.466 17.686 117.83 17.8286C118.17 17.9636 118.46 18.1988 118.66 18.5024C118.869 18.8146 118.974 19.2243 118.974 19.7313V20.7118C118.913 20.6475 118.849 20.5866 118.782 20.5292C118.234 20.0563 117.443 19.8198 116.407 19.8198C115.788 19.8117 115.172 19.9173 114.591 20.1312C114.081 20.3121 113.633 20.6328 113.301 21.056C112.995 21.4879 112.83 22.0021 112.829 22.5295C112.827 23.0569 112.988 23.5721 113.291 24.0058C113.617 24.4226 114.052 24.7428 114.549 24.9316C115.114 25.151 115.716 25.2595 116.322 25.2511C117.37 25.2511 118.179 25.0062 118.748 24.5162C118.864 24.4168 118.97 24.3065 119.064 24.1866V25.0612H120.688V19.5752C120.701 19.0317 120.586 18.4927 120.351 18.0012ZM118.395 23.5704C117.977 23.8138 117.455 23.9355 116.829 23.9355C116.188 23.9355 115.655 23.8138 115.23 23.5704C114.806 23.3269 114.594 22.9751 114.594 22.5149C114.584 22.2933 114.64 22.0738 114.752 21.8822C114.865 21.6906 115.031 21.5351 115.23 21.434C115.655 21.1972 116.188 21.0791 116.829 21.0797C117.457 21.0797 117.979 21.2015 118.395 21.4449C118.591 21.5474 118.754 21.7023 118.865 21.892C118.977 22.0816 119.032 22.2984 119.025 22.5177C119.025 22.9784 118.815 23.3296 118.395 23.5713V23.5704Z" fill="#211E1E"/>
<path d="M21.208 20.7556C21.2059 22.1491 21.7602 23.4868 22.7499 24.4769C24.6596 26.3686 27.2522 26.365 28.9047 25.4757C30.9277 24.3884 35.4788 21.1272 30.7535 7.59961C30.7535 13.985 21.208 14.6341 21.208 20.7556Z" fill="#211E1E"/>
<path d="M25.5544 13.1898C25.241 11.5163 24.7387 9.80263 23.9876 7.59961C23.9876 13.985 14.4412 14.6341 14.4412 20.7556C14.439 22.1487 14.9925 23.4862 15.9812 24.4769C17.8909 26.3686 20.5037 26.3632 22.136 25.4757C18.3406 21.4668 19.677 16.8262 25.5544 13.1898Z" fill="#211E1E"/>
<path d="M18.7878 13.1898C18.4744 11.5163 17.9712 9.80263 17.221 7.59961C17.221 13.985 7.67456 14.6341 7.67456 20.7556C7.67456 23.8954 10.2423 25.2776 10.2423 25.2776C9.84328 26.9563 9.75986 28.6935 9.99618 30.4022L11.221 30.2004C10.622 28.1371 10.9897 25.8902 11.0275 25.6702C12.5943 26.2919 14.2099 26.1075 15.3694 25.4776C11.5685 21.4668 12.9104 16.8271 18.7878 13.1898Z" fill="#211E1E"/>
</svg>
