<svg width="109" height="26" viewBox="0 0 109 26" fill="none" xmlns="http://www.w3.org/2000/svg">
<path d="M35.6584 16.0255C36.2519 16.327 36.9062 16.4892 37.5717 16.5C38.3619 16.5 38.779 16.1728 38.779 15.6773C38.779 15.1818 38.4193 14.933 37.5047 14.6058C36.242 14.1658 35.4173 13.4579 35.4173 12.3615C35.4173 11.0643 36.5003 10.0656 38.2873 10.0656C38.9534 10.0516 39.6146 10.1822 40.2255 10.4482L39.8428 11.8354C39.3475 11.5948 38.8035 11.4711 38.2529 11.4738C37.5086 11.4738 37.147 11.8124 37.147 12.2066C37.147 12.6925 37.5755 12.9049 38.5571 13.278C39.8964 13.7736 40.5316 14.4738 40.5316 15.5453C40.5316 16.8195 39.5501 17.914 37.4703 17.914C36.7257 17.919 35.9895 17.7569 35.3159 17.4395L35.6584 16.0255ZM43.4169 10.1957V17.7973H41.6949V10.1957H43.4169ZM45.2441 10.2971C46.0044 10.1868 46.7719 10.1343 47.5401 10.1402C48.6689 10.1402 49.4534 10.3085 49.9987 10.7371C50.2316 10.9289 50.4164 11.1726 50.538 11.4488C50.6596 11.7249 50.7147 12.0258 50.699 12.3271C50.6933 12.7386 50.562 13.1386 50.3226 13.4734C50.0832 13.8082 49.7472 14.0618 49.3596 14.2002V14.2327C49.8896 14.447 50.1824 14.956 50.3756 15.6543C50.6109 16.5115 50.8482 17.5045 50.9955 17.7973H49.2353C49.1109 17.5715 48.9311 16.963 48.7053 16.0255C48.4795 15.088 48.1753 14.8201 47.4769 14.8087H46.9584V17.7973H45.2537L45.2441 10.2971ZM46.9489 13.5688H47.6243C48.4814 13.5688 48.9885 13.1383 48.9885 12.4744C48.9885 11.7741 48.5159 11.4259 47.7257 11.4144C47.4656 11.4092 47.2056 11.4278 46.9489 11.4699V13.5688ZM53.8617 10.1957V17.7973H52.1397V10.1957H53.8617ZM62.1042 13.9171C62.1042 16.4044 60.5946 17.9216 58.3713 17.9216C56.1155 17.9216 54.7973 16.2188 54.7973 14.0529C54.7973 11.7741 56.2514 10.0713 58.4957 10.0713C60.8299 10.0713 62.1042 11.8201 62.1042 13.9171ZM56.613 14.0185C56.613 15.507 57.3114 16.5555 58.4613 16.5555C59.6112 16.5555 60.2885 15.4515 60.2885 13.9745C60.2885 12.6103 59.6341 11.4374 58.4498 11.4374C57.2654 11.4374 56.613 12.5414 56.613 14.0185ZM66.8569 10.1918H68.5789V16.3489H71.6038V17.7934H66.8569V10.1918ZM74.2097 10.1918V17.7934H72.4878V10.1957L74.2097 10.1918ZM76.037 10.2932C76.7719 10.181 77.5148 10.1285 78.2583 10.1363C79.3068 10.1363 79.9497 10.2378 80.5026 10.563C80.7782 10.7016 81.0097 10.9143 81.1709 11.1773C81.3322 11.4403 81.4168 11.7431 81.4153 12.0516C81.4153 12.7289 81.0211 13.3603 80.164 13.676V13.6989C81.0326 13.9362 81.6755 14.5905 81.6755 15.5721C81.6766 15.8836 81.6059 16.1911 81.4689 16.4709C81.3318 16.7506 81.1321 16.995 80.8853 17.185C80.3343 17.6251 79.4082 17.8719 77.8967 17.8719C77.2749 17.8784 76.6534 17.8407 76.037 17.759V10.2932ZM77.7398 13.2034H78.3042C79.2054 13.2034 79.6895 12.8303 79.6895 12.2678C79.6895 11.7053 79.2513 11.3877 78.4726 11.3877C78.2275 11.3835 77.9825 11.3989 77.7398 11.4336V13.2034ZM77.7398 16.5766C77.9612 16.5963 78.1835 16.6034 78.4056 16.5976C79.1824 16.5976 79.8712 16.2934 79.8712 15.5032C79.8712 14.713 79.1824 14.4317 78.3253 14.4317H77.7398V16.5766ZM84.1666 15.8418L83.6252 17.7934H81.84L84.1628 10.1918H86.432L88.7892 17.7934H86.9294L86.3421 15.8418H84.1666ZM86.0952 14.5561L85.6207 12.9432C85.4849 12.4936 85.351 11.9291 85.2381 11.4776H85.2151C85.1022 11.9291 84.9893 12.5031 84.865 12.9432L84.4154 14.5561H86.0952ZM89.5909 17.7934V10.1957H91.5979L93.1764 12.9814C93.6472 13.8216 94.0614 14.6921 94.4162 15.5874H94.4507C94.3418 14.5304 94.2926 13.4681 94.3034 12.4055V10.1957H95.8838V17.7973H94.0852L92.4608 14.8641C91.9741 13.995 91.5334 13.1009 91.1406 12.1855H91.1062C91.1521 13.19 91.1732 14.2615 91.1732 15.5013V17.7973L89.5909 17.7934ZM102.165 14.5791H99.3679V16.3833H102.492V17.7934H97.6421V10.1957H102.334V11.6058H99.3679V13.1843H102.165V14.5791ZM103.585 16.0217C104.178 16.3231 104.833 16.4854 105.498 16.4962C106.288 16.4962 106.705 16.169 106.705 15.6735C106.705 15.1779 106.344 14.9292 105.431 14.602C104.168 14.162 103.344 13.454 103.344 12.3577C103.344 11.0605 104.427 10.0617 106.214 10.0617C106.88 10.0481 107.541 10.1786 108.152 10.4444L107.769 11.8315C107.274 11.5909 106.73 11.4672 106.179 11.4699C105.435 11.4699 105.073 11.8086 105.073 12.2027C105.073 12.6887 105.502 12.9011 106.483 13.2742C107.823 13.7697 108.456 14.47 108.456 15.5415C108.456 16.8157 107.477 17.9101 105.395 17.9101C104.65 17.916 103.914 17.7538 103.24 17.4356L103.585 16.0217ZM65.1827 13.0905H63.388V14.8852H65.1827V13.0905ZM42.663 7.99344L41.7064 9.38059H43.084L44.4596 7.99344H42.663ZM99.4023 7.99344L98.2735 9.38059H99.4693L100.043 8.68223H100.066L100.629 9.38059H101.836L100.688 7.99344H99.4023Z" fill="#211E1E"/>
<path d="M6.32737 25.2343C6.28894 25.1289 6.22286 25.0357 6.13603 24.9645C5.99445 24.8497 5.85286 24.8555 5.76485 24.9645C5.67684 25.0736 5.69406 25.1674 5.79164 25.3472C5.91409 25.55 5.94662 25.7299 5.82416 25.8753C5.78746 25.9147 5.74304 25.9461 5.69366 25.9676C5.64429 25.9891 5.59101 26.0002 5.53717 26.0002C5.48332 26.0002 5.43005 25.9891 5.38067 25.9676C5.3313 25.9461 5.28687 25.9147 5.25017 25.8753C5.16669 25.8112 5.10086 25.7269 5.05884 25.6304L5.18703 25.55C5.22258 25.6334 5.27693 25.7074 5.34583 25.7662C5.36681 25.7893 5.39237 25.8077 5.42087 25.8202C5.44937 25.8328 5.48018 25.8393 5.51134 25.8393C5.54249 25.8393 5.57331 25.8328 5.6018 25.8202C5.6303 25.8077 5.65586 25.7893 5.67684 25.7662C5.75911 25.6667 5.73424 25.5749 5.63475 25.3836C5.51229 25.1674 5.49125 25.0009 5.61944 24.8497C5.65922 24.8068 5.70746 24.7725 5.76113 24.749C5.8148 24.7255 5.87274 24.7134 5.93131 24.7134C5.98988 24.7134 6.04782 24.7255 6.10148 24.749C6.15515 24.7725 6.20339 24.8068 6.24318 24.8497C6.33798 24.9266 6.41117 25.0269 6.45556 25.1406L6.32737 25.2343Z" fill="#211E1E"/>
<path d="M3.67737 23.3114C4.03133 22.9995 4.40825 23.0493 4.63402 23.3114C4.68881 23.3787 4.72936 23.4564 4.75323 23.5397C4.77709 23.6231 4.78377 23.7105 4.77286 23.7966C4.76195 23.8826 4.73367 23.9656 4.68974 24.0404C4.64581 24.1152 4.58715 24.1803 4.51731 24.2317C4.45549 24.2963 4.38125 24.3477 4.29904 24.3828C4.21683 24.4179 4.12837 24.436 4.03898 24.436C3.94959 24.436 3.86113 24.4179 3.77893 24.3828C3.69672 24.3477 3.62247 24.2963 3.56065 24.2317C3.50459 24.165 3.46294 24.0874 3.43832 24.0038C3.4137 23.9203 3.40665 23.8325 3.41761 23.746C3.42858 23.6596 3.45732 23.5763 3.50202 23.5015C3.54672 23.4267 3.60642 23.362 3.67737 23.3114ZM4.39486 24.094C4.61298 23.9026 4.70673 23.6099 4.52497 23.3994C4.3432 23.189 4.03898 23.2406 3.80556 23.4453C3.60083 23.6252 3.4803 23.9179 3.67545 24.1418C3.87061 24.3657 4.15952 24.2929 4.39486 24.094Z" fill="#211E1E"/>
<path d="M2.96185 21.0729C3.06045 21.1447 3.14263 21.2366 3.20293 21.3427C3.2555 21.4183 3.2912 21.5043 3.30763 21.5949C3.32406 21.6855 3.32082 21.7786 3.29815 21.8679C3.27547 21.9572 3.23388 22.0405 3.17619 22.1123C3.11849 22.1841 3.04605 22.2426 2.96376 22.284C2.8848 22.3386 2.79522 22.3759 2.70088 22.3935C2.60653 22.4111 2.50953 22.4086 2.4162 22.3862C2.32287 22.3639 2.2353 22.3221 2.15921 22.2636C2.08312 22.2051 2.02021 22.1312 1.97458 22.0468C1.91385 21.9535 1.87343 21.8486 1.85596 21.7387L2.00137 21.7004C2.01544 21.7948 2.04864 21.8853 2.09895 21.9664C2.13415 22.0321 2.1833 22.0892 2.24294 22.1339C2.30258 22.1786 2.37127 22.2096 2.44419 22.225C2.51711 22.2403 2.59249 22.2394 2.66506 22.2225C2.73763 22.2056 2.80562 22.1731 2.86427 22.1271C2.92974 22.0956 2.98756 22.0503 3.03369 21.9942C3.07982 21.9381 3.11316 21.8726 3.13137 21.8023C3.14959 21.7319 3.15225 21.6585 3.13916 21.587C3.12607 21.5156 3.09756 21.4479 3.0556 21.3886C3.00679 21.3045 2.94175 21.231 2.86427 21.1724L2.96185 21.0729Z" fill="#211E1E"/>
<path d="M1.146 20.3592L2.40304 19.8101L2.47384 19.9727L1.21679 20.5218L1.146 20.3592Z" fill="#211E1E"/>
<path d="M1.13831 18.1034L1.28563 18.6162L1.76013 18.4784L1.59559 17.9044L1.73717 17.8623L1.95147 18.6028L0.635105 18.9854L0.428467 18.2813L0.571965 18.2392L0.728857 18.7807L1.14405 18.6621L0.996721 18.1493L1.13831 18.1034Z" fill="#211E1E"/>
<path d="M0.141537 16.8425C0.108867 16.7207 0.0852051 16.5966 0.0707439 16.4713C0.0286368 16.2736 0.0664681 16.0673 0.175977 15.8973C0.230609 15.8244 0.300545 15.7644 0.380869 15.7214C0.461192 15.6784 0.549953 15.6536 0.640912 15.6486C0.737343 15.6322 0.836114 15.6356 0.931187 15.6586C1.02626 15.6816 1.11564 15.7238 1.19386 15.7825C1.35376 15.932 1.44915 16.1379 1.45981 16.3565C1.47336 16.4631 1.48039 16.5705 1.48086 16.678L0.141537 16.8425ZM1.32588 16.5268C1.32709 16.4666 1.32325 16.4065 1.3144 16.347C1.31406 16.2679 1.29597 16.1899 1.26146 16.1188C1.22695 16.0476 1.17691 15.9851 1.11502 15.9359C1.05313 15.8867 0.980972 15.852 0.903881 15.8344C0.82679 15.8168 0.746731 15.8167 0.669612 15.8342C0.595766 15.8361 0.523307 15.8547 0.457657 15.8885C0.392008 15.9224 0.334868 15.9707 0.290517 16.0298C0.246165 16.0888 0.21575 16.1572 0.201547 16.2297C0.187344 16.3022 0.189722 16.3769 0.208503 16.4484C0.216183 16.5178 0.230275 16.5863 0.250596 16.6531L1.32588 16.5268Z" fill="#211E1E"/>
<path d="M0.916477 14.1467L1.33932 14.3112V14.493L0 13.9572V13.7449L1.39289 13.3488V13.5401L0.954742 13.6645L0.916477 14.1467ZM0.801677 13.6894L0.399882 13.8042C0.309956 13.8291 0.227684 13.8463 0.147324 13.8616C0.227684 13.8845 0.309956 13.9113 0.392228 13.9419L0.774891 14.095L0.801677 13.6894Z" fill="#211E1E"/>
<path d="M0.235352 11.8832C0.243268 11.7544 0.261827 11.6264 0.290838 11.5006C0.320212 11.3024 0.423412 11.1226 0.579748 10.9974C0.656276 10.9472 0.742769 10.9142 0.83327 10.9006C0.923772 10.8871 1.01613 10.8933 1.104 10.9189C1.19988 10.936 1.29134 10.9722 1.37287 11.0255C1.45441 11.0787 1.52435 11.1479 1.5785 11.2289C1.68024 11.4248 1.70152 11.6527 1.63781 11.8641C1.61419 11.969 1.58481 12.0724 1.5498 12.174L0.235352 11.8832ZM1.45605 11.9789C1.47746 11.923 1.4941 11.8654 1.50579 11.8067C1.53222 11.732 1.54141 11.6522 1.53269 11.5734C1.52397 11.4946 1.49756 11.4188 1.45543 11.3517C1.4133 11.2845 1.35654 11.2278 1.28939 11.1856C1.22224 11.1435 1.14643 11.1171 1.06764 11.1083C0.753859 11.0337 0.510869 11.1676 0.428597 11.5331C0.413231 11.6004 0.403629 11.6689 0.399897 11.7378L1.45605 11.9789Z" fill="#211E1E"/>
<path d="M1.86367 9.04001L1.66277 9.53173L2.11814 9.72307L2.34391 9.17395L2.47976 9.22943L2.18894 9.94309L0.92041 9.42459L1.19975 8.73962L1.33751 8.79511L1.12513 9.31553L1.52693 9.48007L1.71826 8.98835L1.86367 9.04001Z" fill="#211E1E"/>
<path d="M2.6958 6.14328C2.74388 6.04695 2.8009 5.95535 2.86609 5.86967C2.93658 5.75542 3.04597 5.67049 3.17413 5.63051C3.21885 5.61714 3.26618 5.61504 3.31192 5.62439C3.35765 5.63373 3.40036 5.65424 3.43625 5.68408C3.48872 5.72757 3.52658 5.78612 3.54472 5.85182C3.56285 5.91751 3.56039 5.98719 3.53766 6.05144C3.59823 5.99767 3.67558 5.96656 3.75652 5.96342C3.83746 5.96028 3.91699 5.9853 3.98155 6.03422C4.02319 6.06436 4.058 6.10294 4.08372 6.14745C4.10944 6.19196 4.12547 6.24139 4.13079 6.29252C4.12532 6.4627 4.05718 6.62487 3.93945 6.74789C3.88462 6.8211 3.82519 6.89076 3.76151 6.95644L2.6958 6.14328ZM3.24875 6.33461L3.34633 6.20642C3.37204 6.18163 3.3925 6.15191 3.40647 6.11903C3.42044 6.08616 3.42764 6.05081 3.42764 6.01509C3.42764 5.97937 3.42044 5.94401 3.40647 5.91114C3.3925 5.87827 3.37204 5.84855 3.34633 5.82375C3.24492 5.73574 3.09377 5.7874 2.98662 5.92899C2.95366 5.97036 2.92542 6.01528 2.90244 6.06292L3.24875 6.33461ZM3.77299 6.73066C3.80761 6.69543 3.83958 6.6577 3.86866 6.61778C3.97963 6.47237 4.02938 6.29634 3.86866 6.17581C3.70794 6.05527 3.56253 6.14519 3.44582 6.29826L3.35589 6.41688L3.77299 6.73066Z" fill="#211E1E"/>
<path d="M5.16774 4.4117L4.78508 4.78288L5.13139 5.13684L5.55614 4.72357L5.65946 4.83071L5.11608 5.36835L4.15942 4.383L4.69132 3.86832L4.79273 3.97355L4.38902 4.36769L4.69132 4.67765L5.07399 4.30647L5.16774 4.4117Z" fill="#211E1E"/>
<path d="M6.58748 4.05585L5.80493 2.93082L5.96182 2.81985L6.72715 3.13937C6.88183 3.20171 7.03206 3.27459 7.17678 3.35749C7.05815 3.21591 6.95866 3.08197 6.83812 2.90786L6.50903 2.43719L6.64679 2.34152L7.42933 3.46655L7.28392 3.56795L6.5186 3.24461C6.35689 3.1791 6.19966 3.10304 6.04792 3.01692C6.15507 3.15277 6.25264 3.28478 6.38275 3.47229L6.71758 3.95253L6.58748 4.05585Z" fill="#211E1E"/>
<path d="M8.91226 1.94548L8.43202 2.17699L8.64439 2.62088L9.18203 2.36449L9.24517 2.50034L8.56021 2.83134L7.96899 1.59534L8.63483 1.27582L8.69988 1.40975L8.17754 1.65274L8.36888 2.0354L8.84912 1.8058L8.91226 1.94548Z" fill="#211E1E"/>
<path d="M9.97217 0.753476L10.6782 0.539185L10.7222 0.680771L10.1845 0.845316L10.3185 1.28155L10.8159 1.1304L10.8561 1.27007L10.3606 1.42122L10.5519 2.01435L10.3816 2.06792L9.97217 0.753476Z" fill="#211E1E"/>
<path d="M12.2242 0.208191L12.4518 1.5609L12.2758 1.5896L12.05 0.238803L12.2242 0.208191Z" fill="#211E1E"/>
<path d="M14.6828 1.33894C14.5701 1.39113 14.4473 1.41791 14.3231 1.41739C14.2313 1.42548 14.1389 1.41375 14.052 1.38299C13.9652 1.35223 13.886 1.30316 13.8197 1.23911C13.7535 1.17506 13.7018 1.09753 13.6682 1.01176C13.6345 0.925986 13.6197 0.833988 13.6247 0.741992C13.6167 0.646611 13.6288 0.550599 13.6602 0.460184C13.6916 0.36977 13.7417 0.28697 13.8072 0.217155C13.8727 0.14734 13.9521 0.0920667 14.0403 0.0549222C14.1285 0.0177778 14.2236 -0.000409534 14.3193 0.00153948C14.4308 -0.00533023 14.5425 0.0123033 14.6465 0.0531997L14.6082 0.19861C14.5198 0.162084 14.4244 0.145743 14.3288 0.150778C14.2555 0.149071 14.1827 0.16323 14.1154 0.192285C14.048 0.221341 13.9878 0.264606 13.9387 0.319118C13.8896 0.37363 13.8529 0.438101 13.8311 0.508116C13.8093 0.578132 13.8029 0.652037 13.8122 0.724771C13.8067 0.797212 13.8169 0.869999 13.8424 0.938056C13.8678 1.00611 13.9078 1.0678 13.9595 1.11881C14.0113 1.16982 14.0735 1.20892 14.1419 1.23339C14.2103 1.25787 14.2833 1.26712 14.3556 1.2605C14.4547 1.25855 14.5524 1.23641 14.6426 1.19545L14.6828 1.33894Z" fill="#211E1E"/>
<path d="M16.6668 0.904597L16.1406 0.837632L16.0775 1.32935L16.6668 1.40397L16.6476 1.5513L15.8823 1.45563L16.0526 0.0933533L16.7873 0.187105L16.7682 0.33443L16.2133 0.263638L16.1598 0.692219L16.6878 0.759185L16.6668 0.904597Z" fill="#211E1E"/>
<path d="M17.832 1.79049L18.2147 0.476044L18.406 0.53153L18.6299 1.32173C18.6778 1.48479 18.7143 1.65102 18.7389 1.81919C18.7753 1.63934 18.8193 1.47671 18.8786 1.27198L19.0412 0.720947L19.202 0.76878L18.8193 2.08322L18.6471 2.03348L18.4271 1.24137C18.3789 1.07346 18.3406 0.902881 18.3123 0.730513C18.274 0.898885 18.2319 1.05769 18.1669 1.27772L18.0004 1.83832L17.832 1.79049Z" fill="#211E1E"/>
<path d="M20.7804 1.5781L20.3977 1.38677L20.4647 1.25284L21.3793 1.70438L21.3123 1.83831L20.9296 1.64698L20.3958 2.74522L20.2351 2.66678L20.7804 1.5781Z" fill="#211E1E"/>
<path d="M22.7014 3.38616L22.2632 3.08577L21.9839 3.49331L22.4718 3.82814L22.3876 3.95059L21.762 3.51435L22.5388 2.3855L23.1491 2.80451L23.0649 2.92505L22.6 2.60744L22.3455 2.9748L22.7837 3.2771L22.7014 3.38616Z" fill="#211E1E"/>
<path d="M25.3649 4.82117C25.4594 4.90443 25.5477 4.9946 25.6289 5.09094C25.7707 5.2329 25.8523 5.42413 25.8566 5.62476C25.851 5.71606 25.8257 5.80507 25.7824 5.88566C25.7392 5.96625 25.6789 6.03651 25.6059 6.09161C25.5341 6.15787 25.4496 6.20897 25.3576 6.24184C25.2655 6.27472 25.1678 6.28869 25.0702 6.28294C24.8533 6.24535 24.6593 6.12539 24.5287 5.94811C24.4603 5.86624 24.3964 5.78064 24.3374 5.69172L25.3649 4.82117ZM24.5536 5.73956C24.5862 5.78967 24.622 5.8376 24.6608 5.88305C24.7045 5.94906 24.7626 6.00434 24.8307 6.04477C24.8988 6.08519 24.9752 6.10972 25.0541 6.11652C25.133 6.12333 25.2124 6.11224 25.2864 6.08407C25.3604 6.0559 25.4271 6.01139 25.4816 5.95385C25.5419 5.91151 25.5919 5.85611 25.6278 5.79178C25.6637 5.72744 25.6847 5.65582 25.6891 5.58226C25.6935 5.5087 25.6813 5.43509 25.6533 5.36692C25.6253 5.29874 25.5823 5.23777 25.5275 5.18852C25.4834 5.13456 25.4333 5.08578 25.3782 5.04311L24.5536 5.73956Z" fill="#211E1E"/>
<path d="M26.6581 7.83082L26.3845 7.37546L25.9713 7.6261L26.2755 8.13695L26.1473 8.21349L25.7512 7.55148L26.9298 6.84738L27.3125 7.48451L27.1843 7.56105L26.8973 7.07698L26.5242 7.29701L26.7978 7.7562L26.6581 7.83082Z" fill="#211E1E"/>
<path d="M27.368 10.5286C27.3383 10.6369 27.3383 10.7512 27.368 10.8596C27.4177 11.0318 27.5402 11.1083 27.6722 11.07C27.8042 11.0318 27.8463 10.9438 27.8635 10.7448C27.8769 10.5094 27.9496 10.343 28.1352 10.2913C28.1882 10.2788 28.2433 10.2774 28.2969 10.2871C28.3505 10.2968 28.4015 10.3175 28.4468 10.3479C28.4921 10.3782 28.5306 10.4176 28.5599 10.4635C28.5893 10.5094 28.6088 10.5609 28.6174 10.6147C28.6486 10.715 28.6545 10.8215 28.6346 10.9246H28.4834C28.5028 10.836 28.4995 10.7438 28.4739 10.6568C28.4222 10.4769 28.294 10.4387 28.206 10.4654C28.0816 10.5037 28.0434 10.5994 28.0261 10.8022C28.0032 11.049 27.9305 11.1848 27.7353 11.2499C27.5402 11.3149 27.3106 11.2078 27.2226 10.8978C27.1887 10.7801 27.1847 10.6558 27.2111 10.5362L27.368 10.5286Z" fill="#211E1E"/>
<path d="M28.3515 13.1556L28.2826 12.6275L27.7928 12.6906L27.8675 13.2799L27.722 13.2991L27.6226 12.5337L28.981 12.3558L29.0767 13.0886L28.9293 13.1077L28.8547 12.549L28.4281 12.6064L28.4969 13.1345L28.3515 13.1556Z" fill="#211E1E"/>
<path d="M27.7889 14.5025L29.1588 14.5446V14.736L28.4528 15.155C28.3068 15.2419 28.1553 15.3192 27.9993 15.3865C28.1867 15.3768 28.3745 15.3768 28.5618 15.3865L29.1358 15.4037V15.5702L27.7678 15.5281V15.3482L28.4738 14.9349C28.624 14.8456 28.7793 14.7652 28.9388 14.6939H28.3648L27.7793 14.6747L27.7889 14.5025Z" fill="#211E1E"/>
<path d="M28.9139 17.2596L28.3533 17.1448L28.2175 17.7934L28.78 17.9101L28.7436 18.0842L27.4043 17.8068L27.4407 17.6327L28.0701 17.7628L28.2041 17.1123L27.5746 16.9822L27.6109 16.8081L28.9503 17.0874L28.9139 17.2596Z" fill="#211E1E"/>
<path d="M27.2437 20.386C26.8075 20.21 26.6812 19.8522 26.8132 19.5269C26.8477 19.4469 26.8983 19.3749 26.9618 19.3153C27.0253 19.2557 27.1005 19.2099 27.1825 19.1806C27.2645 19.1514 27.3517 19.1393 27.4386 19.1452C27.5255 19.1512 27.6103 19.1749 27.6876 19.215C28.0722 19.37 28.2616 19.7355 28.1181 20.0741C27.9746 20.4128 27.6225 20.5371 27.2437 20.386ZM27.6264 19.393C27.3547 19.2839 27.0524 19.3337 26.949 19.5843C26.8457 19.835 27.0237 20.0875 27.3126 20.2042C27.5651 20.3075 27.8866 20.2827 27.9918 20.0129C28.097 19.7431 27.9 19.502 27.6206 19.3911L27.6264 19.393Z" fill="#211E1E"/>
<path d="M27.1861 21.9032C27.1436 22.0091 27.0918 22.1109 27.0311 22.2074C26.9729 22.3361 26.8674 22.4375 26.7365 22.4906C26.6895 22.5038 26.6402 22.5068 26.592 22.4992C26.5438 22.4916 26.4978 22.4736 26.4572 22.4466C26.3899 22.4061 26.3376 22.3448 26.3083 22.272C26.279 22.1991 26.2741 22.1187 26.2945 22.0429C26.2452 22.0771 26.1878 22.0977 26.1281 22.1028C26.0683 22.1078 26.0083 22.0971 25.954 22.0716C25.83 22.0242 25.7019 21.9884 25.5713 21.9645L25.667 21.8076C25.7783 21.8301 25.8877 21.8615 25.9941 21.9013C26.1855 21.9664 26.2754 21.9415 26.3653 21.8076L26.4533 21.666L25.9406 21.3426L26.0324 21.1934L27.1861 21.9032ZM26.5624 21.7253L26.4667 21.8803C26.4421 21.9095 26.424 21.9437 26.4136 21.9804C26.4031 22.0172 26.4006 22.0558 26.4063 22.0936C26.4119 22.1314 26.4254 22.1676 26.4461 22.1997C26.4667 22.2319 26.494 22.2593 26.526 22.2802C26.6753 22.372 26.8092 22.3031 26.9087 22.1462C26.9401 22.0967 26.9664 22.0442 26.9871 21.9893L26.5624 21.7253Z" fill="#211E1E"/>
<path d="M25.0414 23.3612L24.8099 22.9785L24.9285 22.8427L25.6594 24.0902L25.5197 24.2528L24.1804 23.7075L24.3029 23.564L24.7257 23.7362L25.0414 23.3612ZM24.8501 23.7917L25.2327 23.9486C25.3208 23.9849 25.3954 24.0232 25.4681 24.0595C25.4183 23.9907 25.3686 23.9199 25.3246 23.8453L25.1122 23.4836L24.8501 23.7917Z" fill="#211E1E"/>
<path d="M23.484 24.6622C23.3739 24.6808 23.2704 24.7276 23.1836 24.7981C23.0459 24.9148 23.0248 25.0564 23.1148 25.1616C23.2047 25.2668 23.3061 25.2706 23.4974 25.2056C23.7175 25.1214 23.8992 25.1214 24.0255 25.2706C24.059 25.3141 24.0831 25.364 24.0962 25.4173C24.1093 25.4706 24.1112 25.526 24.1016 25.58C24.0921 25.6341 24.0714 25.6855 24.0408 25.7311C24.0102 25.7766 23.9705 25.8153 23.9241 25.8446C23.8464 25.9157 23.7514 25.9652 23.6486 25.9881L23.5931 25.8466C23.6821 25.8288 23.765 25.7886 23.8342 25.7298C23.9777 25.6093 23.9605 25.4773 23.9011 25.4065C23.8418 25.3357 23.7098 25.3127 23.5185 25.3797C23.2851 25.4601 23.1224 25.4505 22.9923 25.2955C22.8622 25.1405 22.8565 24.8918 23.1052 24.6833C23.1977 24.6029 23.31 24.5487 23.4305 24.5264L23.484 24.6622Z" fill="#211E1E"/>
<path d="M20.572 10.32L16.8583 6.65604L15.4443 8.64971L20.572 10.32Z" fill="#211E1E"/>
<path d="M14.4971 4.74655L13.506 3.96017L7.97656 6.21023L12.3848 7.65095L14.4971 4.74655Z" fill="#211E1E"/>
<path d="M20.5718 5.68028L15.1151 3.89899L14.4971 4.74658L16.8581 6.65607L20.5718 5.68028Z" fill="#211E1E"/>
<path d="M12.3848 7.65094L14.6406 14.6192L15.4422 8.64969L12.3848 7.65094Z" fill="#211E1E"/>
<path d="M14.4217 2.4714L13.5674 3.2662L14.3622 4.12054L15.2165 3.32573L14.4217 2.4714Z" fill="#211E1E"/>
<path d="M12.3831 7.65094L7.74902 10.0502L9.20888 12.0095L12.3831 7.65094Z" fill="#211E1E"/>
<path d="M5.20609 11.7053L4.15186 12.4036L4.58426 18.3598L7.31265 14.6097L5.20609 11.7053Z" fill="#211E1E"/>
<path d="M7.97091 6.21405L4.59009 10.8557L5.20617 11.7053L7.74897 10.0502L7.97091 6.21405Z" fill="#211E1E"/>
<path d="M9.20884 12.0095L7.31274 14.6097L14.6388 14.6192L9.20884 12.0095Z" fill="#211E1E"/>
<path d="M4.07789 10.58L3.01978 11.0725L3.51228 12.1307L4.5704 11.6381L4.07789 10.58Z" fill="#211E1E"/>
<path d="M7.31274 14.6135L8.16225 19.7622L10.4793 18.9759L7.31274 14.6135Z" fill="#211E1E"/>
<path d="M8.95044 22.6915L9.2891 23.9103L15.0864 25.3395L12.3657 21.5837L8.95044 22.6915Z" fill="#211E1E"/>
<path d="M4.58423 18.3655L7.95166 23.0149L8.95041 22.6915L8.16212 19.7622L4.58423 18.3655Z" fill="#211E1E"/>
<path d="M10.4792 18.9759L12.3658 21.5837L14.6388 14.6212L10.4792 18.9759Z" fill="#211E1E"/>
<path d="M7.53467 23.4167L7.67625 24.5781L8.83381 24.4346L8.69222 23.277L7.53467 23.4167Z" fill="#211E1E"/>
<path d="M12.3696 21.5856L17.5279 22.3682L17.4973 19.923L12.3696 21.5856Z" fill="#211E1E"/>
<path d="M20.5586 22.5269L21.8214 22.5786L24.9726 17.5064L20.5624 18.9337L20.5586 22.5269Z" fill="#211E1E"/>
<path d="M15.094 25.3415L20.5565 23.5736L20.5584 22.527L17.5277 22.3682L15.094 25.3415Z" fill="#211E1E"/>
<path d="M17.4972 19.9229L20.5623 18.9337L14.6406 14.623L17.4972 19.9229Z" fill="#211E1E"/>
<path d="M21.0353 22.9505L20.8101 24.0955L21.9531 24.3204L22.1784 23.1754L21.0353 22.9505Z" fill="#211E1E"/>
<path d="M20.5623 18.9318L22.9003 14.2691L20.5661 13.5401L20.5623 18.9318Z" fill="#211E1E"/>
<path d="M23.9854 11.4355L24.4293 10.2492L20.5778 5.68597L20.572 10.3219L23.9854 11.4355Z" fill="#211E1E"/>
<path d="M24.9763 17.5007L24.984 11.7607L23.9852 11.4355L22.9004 14.2691L24.9763 17.5007Z" fill="#211E1E"/>
<path d="M20.5719 10.3219L14.6406 14.6211L20.5662 13.5401L20.5719 10.3219Z" fill="#211E1E"/>
<path d="M25.106 10.0911L24.5388 11.1112L25.5589 11.6784L26.1261 10.6583L25.106 10.0911Z" fill="#211E1E"/>
</svg>
